<?xml version="1.0" standalone="no"?>
<!DOCTYPE svg PUBLIC "-//W3C//DTD SVG 20010904//EN"
 "http://www.w3.org/TR/2001/REC-SVG-20010904/DTD/svg10.dtd">
<svg version="1.0" xmlns="http://www.w3.org/2000/svg"
 width="600.000000pt" height="600.000000pt" viewBox="0 0 600.000000 600.000000"
 preserveAspectRatio="xMidYMid meet">
<metadata>
Created by potrace 1.16, written by Peter Selinger 2001-2019
</metadata>
<g transform="translate(0.000000,600.000000) scale(0.052910,-0.068182)"
fill="#000000" stroke="none">
<path d="M1695 8765 l-30 -34 -16 -18 -17 -18 -22 -45 -22 -45 -8 -16 -8 -15
-28 -69 -27 -69 -18 -66 -18 -65 -20 -59 -21 -59 0 -24 0 -24 -40 -77 -41 -77
-42 -42 -42 -42 -21 -23 -20 -23 -31 -40 -30 -40 -22 -42 -21 -43 -31 -87 -31
-88 -10 -70 -10 -70 -8 -20 -7 -20 -13 -35 -12 -35 -12 -30 -11 -30 -20 -24
-20 -24 -37 -44 -38 -44 0 -11 0 -11 -17 -20 -18 -19 0 -127 0 -126 42 -85 42
-85 50 -50 49 -50 35 -27 35 -28 7 0 7 0 84 -65 83 -66 16 -51 15 -52 0 -37 0
-37 16 -38 16 -39 94 -141 94 -141 18 -17 18 -16 27 13 26 12 4 16 4 16 -18
39 -18 39 -1 13 0 12 -9 0 -10 0 -33 55 -33 56 -27 47 -27 47 -11 48 -10 48
-20 41 -20 42 0 21 0 21 -30 47 -29 46 -21 13 -20 13 0 12 0 13 -58 29 -58 29
-13 16 -13 16 -12 0 -12 0 -32 33 -32 33 0 10 0 9 -19 12 -18 11 -30 54 -30
53 -13 53 -14 52 13 63 13 62 24 54 25 53 24 33 25 32 0 8 0 8 23 31 24 31 25
55 26 55 11 35 11 35 25 89 25 88 0 12 0 12 40 79 40 80 85 95 86 95 33 70 34
70 25 57 26 56 17 59 16 58 14 16 14 16 0 12 0 12 20 63 21 63 24 23 24 22 10
-7 11 -6 0 -39 0 -39 10 -6 10 -6 -6 -10 -6 -10 19 -22 19 -22 19 -42 18 -43
14 0 13 0 0 -11 0 -11 119 -115 120 -115 40 -83 41 -83 0 -44 0 -45 10 -54 9
-54 6 -35 5 -36 33 -37 32 -36 60 -71 59 -70 8 0 8 0 52 -50 53 -50 29 -27 28
-28 19 -40 19 -40 0 -21 0 -22 14 -33 13 -34 6 -135 6 -135 12 -35 13 -35 42
-60 42 -60 19 -20 18 -19 54 -71 53 -70 9 -6 10 -6 34 -53 35 -54 0 -12 0 -13
24 -18 23 -19 6 -29 6 -30 20 -73 21 -74 9 -131 10 -132 18 -60 19 -60 26 -41
26 -41 54 -64 55 -64 36 -54 37 -53 0 -10 0 -9 22 -47 21 -47 2 -205 1 -205
36 -65 35 -65 26 -40 27 -40 13 -15 14 -15 28 -50 28 -50 25 -45 25 -45 10
-40 10 -40 -1 -60 0 -60 -7 -140 -7 -140 17 -64 16 -63 28 -52 29 -51 -5 -12
-5 -13 -43 -19 -44 -19 -22 -26 -23 -26 -9 0 -9 0 -54 -55 -54 -56 0 -14 0
-15 -8 0 -9 0 -59 -87 -59 -87 -31 -30 -32 -31 -30 -22 -30 -23 -25 0 -24 0
-44 -30 -44 -30 -10 0 -10 -1 -30 -47 -30 -47 -39 -52 -39 -53 -8 0 -7 0 -14
-5 -13 -5 -22 57 -21 58 -11 60 -10 60 -5 35 -5 35 -14 70 -15 70 -7 35 -8 35
-12 15 -12 15 -16 41 -16 42 -54 78 -53 79 -35 50 -36 50 -50 105 -51 105 -11
55 -11 55 -10 109 -10 109 -14 16 -14 16 -18 60 -18 60 -18 24 -18 24 0 17 0
18 -17 13 -16 14 -19 40 -19 40 -37 51 -37 51 -20 27 -20 26 -32 0 -32 0 -10
18 -10 17 -10 -11 -11 -10 8 -45 9 -44 24 -36 24 -36 40 -58 40 -57 37 -57 37
-56 27 -50 27 -50 18 -70 19 -70 0 -101 0 -100 19 -89 20 -88 20 -28 21 -28 0
-12 0 -11 28 -26 28 -27 62 -77 62 -76 0 -10 0 -9 20 -26 21 -26 27 -68 26
-68 2 -175 1 -175 7 -25 8 -25 30 -60 30 -60 35 -27 35 -27 21 8 20 8 14 46
14 47 12 1 12 1 20 -2 20 -2 18 -16 17 -15 24 12 24 13 11 22 11 21 10 25 11
25 23 40 22 40 30 14 29 14 6 10 7 9 53 19 54 19 53 56 52 56 0 10 0 10 25 20
25 19 0 11 0 10 28 30 27 31 50 52 50 51 30 20 30 19 13 18 13 17 60 27 59 26
-6 24 -6 23 10 0 11 0 6 -10 6 -10 22 -1 22 0 -23 -9 -23 -10 6 -37 6 -38 14
-70 14 -70 17 -110 16 -109 14 -22 14 -21 -47 -41 -48 -42 -75 -61 -75 -61
-15 -14 -15 -14 -71 -57 -70 -58 -30 -27 -29 -27 -85 -73 -85 -73 -50 -40 -50
-40 -64 -63 -65 -62 -18 0 -18 0 -5 22 -4 23 -4 60 -4 60 -17 95 -17 95 -10
40 -11 39 -11 -15 -12 -16 -40 -10 -40 -9 3 -50 2 -49 14 -85 15 -85 11 -75
11 -75 11 -55 10 -55 9 -50 8 -50 11 -105 11 -105 14 -60 14 -60 10 -55 10
-55 7 -97 6 -96 12 -23 11 -24 345 3 345 3 83 5 82 6 0 -14 0 -13 -20 -33 -20
-32 0 -21 0 -20 16 -32 17 -32 32 -36 32 -36 4 -9 4 -9 43 -30 43 -30 27 -16
27 -16 3 -16 3 -16 -35 -63 -36 -63 -25 -45 -25 -45 -38 -62 -37 -62 -47 -68
-46 -68 -21 -24 -21 -24 0 -8 0 -8 -22 -25 -23 -25 -24 -40 -25 -40 -12 -5
-13 -5 -16 15 -15 15 0 24 0 24 -14 55 -15 55 -11 20 -11 21 11 20 11 20 8 0
9 0 21 40 21 41 0 45 0 45 -31 62 -30 62 12 42 11 42 -6 26 -7 26 -27 10 -27
11 -70 -6 -70 -6 -80 -27 -80 -26 -42 -24 -43 -25 0 -9 0 -9 -26 -12 -26 -12
6 -46 6 -45 4 -25 4 -24 -17 -13 -16 -12 -37 -6 -38 -7 -7 -12 -8 -12 -50 -19
-50 -18 -25 -17 -25 -17 -45 -26 -45 -25 -45 -44 -45 -43 -27 -40 -27 -40 -15
-58 -15 -57 -5 -9 -5 -8 10 -64 11 -64 11 -38 10 -38 39 -35 39 -35 30 -6 29
-6 6 -8 5 -9 30 0 30 0 22 11 21 12 4 -12 4 -11 33 0 33 0 48 33 49 32 29 58
30 58 6 122 7 122 8 20 8 20 23 24 24 23 37 -7 38 -7 18 -15 17 -16 1 -46 0
-46 9 -50 9 -50 15 -75 14 -75 8 -20 7 -20 12 -15 12 -15 7 -27 6 -28 35 0 35
0 0 4 0 5 -26 60 -26 60 6 13 7 13 13 22 13 23 44 30 44 30 12 0 12 0 5 -9 5
-8 -19 -38 -19 -38 5 -8 5 -9 17 0 18 0 65 68 66 67 77 90 78 89 14 28 14 27
23 24 22 23 18 30 17 29 45 70 45 70 18 28 17 29 30 46 30 46 15 41 15 40 33
3 33 3 12 -9 12 -9 38 -7 37 -7 0 -20 0 -20 -54 -82 -53 -82 -17 -30 -16 -30
-19 -25 -19 -25 -47 -75 -48 -75 -51 -75 -50 -75 -33 -44 -33 -43 -62 -77 -61
-76 -59 -58 -59 -57 53 0 54 0 50 53 51 52 87 105 88 105 13 17 14 17 17 28
18 28 24 29 24 30 9 20 10 21 64 90 65 90 20 38 21 38 19 19 20 20 0 14 0 14
24 29 23 28 7 21 7 22 18 5 18 4 73 -6 73 -7 63 8 63 7 40 27 41 26 25 54 25
53 0 10 0 10 13 13 13 13 21 65 22 65 32 90 32 90 10 13 9 12 422 0 421 0 355
9 355 10 345 6 345 5 128 1 128 1 36 14 35 15 77 67 76 66 13 11 14 10 29 25
29 25 33 27 32 28 40 35 40 35 18 6 17 5 0 14 0 14 23 12 22 12 81 73 82 74 5
0 6 0 28 26 28 26 72 59 71 59 11 0 10 0 13 19 13 18 33 17 32 17 1 22 0 22
-1 85 -1 84 -9 46 -8 45 -12 121 -12 122 11 19 10 20 56 17 55 18 6 9 5 9 28
0 28 0 7 -46 6 -47 -1 -271 0 -271 -10 -145 -9 -145 -6 -135 -6 -135 -13 -15
-12 -15 -27 -50 -28 -50 -14 -45 -14 -45 0 -61 0 -60 17 -50 16 -49 12 -7 12
-8 12 -27 11 -28 53 -35 52 -35 7 -10 8 -10 -7 -30 -7 -30 2 -33 2 -33 15 -29
15 -29 22 -6 23 -7 19 -17 18 -16 97 0 96 0 95 48 95 48 20 18 20 19 30 15 30
15 33 32 32 33 5 21 4 21 6 40 6 40 15 40 15 40 41 25 42 25 53 43 53 42 4 0
5 0 53 56 53 56 24 39 23 39 8 0 7 0 47 79 46 78 18 49 19 49 16 50 16 50 -3
50 -3 50 -23 60 -23 60 -31 45 -30 45 -25 28 -25 27 -12 0 -13 0 -8 13 -8 14
-34 16 -34 17 -92 0 -92 0 -36 -24 -35 -24 -21 -7 -22 -7 -50 -60 -51 -61 -34
-72 -33 -73 -12 -48 -11 -49 -2 -108 -3 -108 -16 -16 -15 -15 -11 6 -11 7 0
13 0 14 -42 34 -43 35 -37 7 -37 7 -5 8 -5 8 10 64 10 64 11 34 10 34 14 101
13 101 7 325 7 325 -12 90 -11 89 -35 73 -36 72 -50 10 -50 11 -46 0 -46 0
-61 -11 -61 -10 -108 -53 -109 -53 -3 11 -2 11 -13 39 -12 38 -8 92 -8 91 -12
92 -11 91 15 53 16 53 0 34 0 34 -16 56 -17 57 -12 20 -13 20 -6 26 -5 25 8
50 9 49 17 79 18 80 -11 75 -11 76 -34 75 -33 75 -27 75 -27 75 -9 50 -9 50
10 45 11 45 12 30 13 30 11 73 11 72 0 28 0 27 73 23 72 22 74 19 73 19 11 11
11 11 14 0 14 0 66 27 67 26 59 38 59 38 16 28 17 28 13 57 14 56 -5 50 -5 51
7 12 8 12 48 18 49 17 85 27 85 28 27 13 26 14 11 0 10 0 11 -21 11 -20 16
-57 15 -57 13 -55 13 -55 12 -108 11 -109 -12 -14 -11 -14 -48 0 -48 0 -50
-16 -50 -16 -52 -50 -51 -49 -16 -36 -15 -37 -8 -49 -7 -49 20 -65 21 -64 -34
-62 -35 -62 1 -85 1 -85 39 -58 39 -57 42 -21 43 -21 6 -9 5 -9 55 0 55 0 25
16 24 17 38 -26 37 -26 42 -7 42 -6 45 6 46 7 32 27 32 27 92 0 92 0 38 31 39
31 32 46 32 45 17 58 17 59 -6 115 -5 115 -13 30 -14 30 -5 5 -6 5 -27 46 -26
46 -58 53 -57 53 -44 18 -44 19 6 33 6 32 7 139 6 139 -13 116 -12 116 -23
111 -23 112 -28 41 -27 42 -34 14 -34 15 -57 1 -57 2 -120 -17 -120 -17 -95
-29 -95 -29 -30 -7 -30 -7 -50 -24 -49 -23 -32 -9 -33 -9 -51 44 -52 44 -57
28 -56 27 -70 -1 -70 0 -75 -38 -75 -39 -30 -21 -30 -21 -55 -27 -54 -28 -9
16 -9 16 21 67 20 66 12 50 12 50 0 165 0 165 -17 60 -17 60 -9 20 -8 20 -17
49 -18 49 -28 30 -29 30 0 12 0 11 -30 29 -31 29 -14 28 -14 28 -12 58 -12 57
7 165 7 165 -11 55 -11 55 -14 30 -14 30 -11 41 -10 42 -53 78 -52 77 -21 31
-22 31 -26 28 -26 28 -15 29 -15 29 0 169 0 169 -21 64 -21 64 -33 57 -33 56
-21 21 -21 21 0 8 0 8 -70 38 -70 37 0 10 0 9 -592 0 -592 0 14 -14 15 -14 85
-16 85 -15 75 -7 75 -6 5 -1 5 -1 140 8 140 8 85 14 85 14 105 0 105 0 60 -13
60 -13 43 -27 42 -28 44 -59 44 -60 11 -67 12 -68 -3 -155 -3 -156 54 -84 54
-85 16 -15 16 -15 23 -45 24 -45 14 -25 14 -25 20 -45 21 -45 14 -40 13 -40
10 -60 10 -60 -5 -75 -5 -75 11 -88 10 -87 41 -82 40 -81 0 -14 0 -13 9 0 9 0
65 -132 66 -133 7 -54 7 -55 13 -25 14 -26 0 -61 0 -60 -12 -12 -12 -12 -10
-97 -11 -98 7 -119 7 -118 14 -17 15 -16 5 -40 5 -40 15 -55 15 -55 22 -55 22
-55 30 -75 30 -75 15 -65 15 -65 2 -50 3 -50 -12 -95 -12 -95 -12 -30 -13 -30
0 -151 0 -151 12 -39 12 -39 10 -15 9 -15 6 -19 6 -19 29 -53 28 -54 0 -79 0
-78 -15 -43 -15 -43 0 -86 0 -87 13 -19 14 -20 23 -75 23 -75 -1 -59 0 -58
-21 -29 -21 -28 0 -10 0 -11 -25 -6 -25 -6 0 -8 0 -7 -42 -11 -43 -11 -33 -5
-34 -6 -101 21 -102 21 -45 24 -45 23 -57 21 -58 21 -62 4 -63 4 -20 -13 -20
-13 -55 -7 -55 -7 -55 -6 -55 -5 -14 -11 -13 -11 -67 -3 -66 -2 -70 15 -70 16
-31 9 -32 10 -68 6 -69 6 -7 11 -7 10 -43 -12 -43 -13 -40 -10 -40 -10 -120
-9 -120 -10 -52 -11 -52 -12 -14 11 -13 12 -140 5 -139 5 -85 21 -85 20 -60
15 -60 16 -118 11 -119 11 -114 -12 -114 -11 -50 -25 -50 -25 -88 -6 -87 -6
-105 10 -105 9 -60 16 -60 15 -104 9 -104 8 -86 -23 -86 -23 -65 -16 -65 -16
-32 -14 -32 -14 -48 -9 -48 -9 -53 7 -53 8 -44 43 -45 44 0 10 0 10 -22 45
-23 46 -5 275 -5 275 -26 50 -26 50 -36 57 -36 56 -8 4 -8 3 -23 45 -23 45
-19 35 -18 35 -16 50 -15 50 -11 150 -10 150 -6 40 -6 40 -23 78 -24 79 -25
33 -26 34 0 9 0 9 -58 74 -59 74 -16 13 -16 13 -22 67 -21 67 -10 70 -9 70 -8
82 -9 82 -17 58 -16 58 -40 82 -39 82 -23 25 -22 26 -25 35 -25 36 -37 49 -38
49 0 8 0 8 -20 13 -20 12 0 15 0 15 -12 22 -13 21 -22 23 -23 23 0 16 0 15
-19 57 -20 58 -6 105 -6 105 -9 39 -9 39 -46 67 -45 67 -62 59 -61 59 -27 28
-28 27 -6 0 -6 0 -38 41 -37 42 -28 60 -27 60 -11 56 -10 56 -8 50 -8 50 -18
55 -18 55 -28 37 -29 37 0 7 0 7 -42 39 -43 39 -42 36 -43 35 0 14 0 13 -13 8
-13 8 -38 60 -39 60 -16 18 -15 18 -19 57 -19 57 -4 65 -3 64 21 23 21 22 6
-3 6 -4 74 13 74 13 66 -9 66 -9 56 -10 55 -10 83 0 82 0 72 10 72 11 23 5 22
4 0 10 0 10 -437 -1 -438 0 -30 -34z m7962 -2693 l31 -36 10 -55 11 -56 15
-105 15 -105 5 -90 6 -90 -8 -135 -9 -135 14 -22 13 -23 38 -19 37 -20 41 -38
41 -38 25 -40 24 -40 24 -65 24 -64 -1 -66 -1 -65 -21 -54 -20 -53 -15 -17
-15 -16 -21 -22 -20 -23 -15 0 -15 0 0 33 0 32 20 38 20 37 2 49 2 49 -13 16
-13 16 -13 0 -13 0 -5 -22 -5 -23 -1 -47 -2 -46 -29 -59 -29 -58 -18 -20 -18
-20 -35 -16 -35 -17 -38 -12 -39 -12 -34 6 -34 7 -10 19 -10 18 37 54 37 53
13 35 12 35 1 31 0 31 -18 16 -17 16 -11 -7 -10 -7 -24 -73 -23 -73 -51 -52
-52 -52 -41 -14 -42 -14 -34 14 -34 14 -28 33 -28 34 -12 51 -11 51 11 51 12
50 26 40 27 40 11 13 11 13 16 -3 17 -4 -3 -97 -4 -97 14 0 14 0 18 37 17 37
6 65 5 66 -11 65 -11 65 -18 25 -19 25 -14 0 -14 0 3 -55 3 -55 -36 -19 -36
-20 -10 15 -9 14 5 35 6 35 22 56 21 55 44 33 43 32 57 19 57 20 12 0 12 0 16
-30 16 -30 14 0 14 0 7 11 7 12 -2 146 -2 146 -15 100 -15 100 -24 52 -25 52
0 15 0 14 29 7 29 6 5 25 4 24 -56 0 -56 -1 -85 -19 -85 -18 -70 -16 -70 -17
-47 -24 -48 -25 -15 0 -15 0 -11 27 -10 28 -25 32 -24 32 0 16 0 15 23 9 22 9
65 26 65 25 80 26 80 26 55 10 55 10 70 8 70 7 55 -4 55 -4 32 -36z m-950 -35
l48 -25 50 -50 50 -50 20 -33 20 -33 20 -35 20 -36 0 -115 0 -115 -13 -23 -14
-24 -41 -20 -42 -20 -35 -18 -35 -19 -18 -1 -17 0 -18 -10 -17 -10 -106 -35
-106 -34 -41 -7 -42 -7 0 59 0 59 -14 45 -14 45 -22 50 -22 50 -33 70 -32 70
-16 35 -16 35 -6 31 -6 30 107 63 106 64 71 24 72 23 47 -4 46 -5 49 -24z
m-319 -765 l3 -22 -9 0 -10 0 -6 16 -6 16 0 10 0 10 13 -4 12 -5 3 -21z
m-2690 -1596 l27 -15 80 -15 80 -16 27 20 27 20 15 0 15 0 7 -11 7 -12 9 17
10 17 11 -10 12 -9 35 2 35 3 13 -10 14 -11 9 15 9 14 15 -19 14 -18 10 6 10
6 6 -9 6 -10 27 -1 27 -1 86 -5 86 -5 54 11 54 11 30 3 30 3 36 15 36 16 60 7
61 7 10 -18 9 -17 21 5 21 6 4 -12 5 -13 84 -27 83 -28 110 0 110 0 80 21 80
22 17 9 17 10 32 -7 32 -6 -6 16 -6 16 11 7 10 7 8 -13 8 -12 6 10 7 11 14 -6
15 -5 13 10 12 9 40 -2 40 -3 5 -2 5 -2 10 -3 10 -2 13 -1 13 -2 -6 -10 -7
-11 12 -14 12 -15 -11 0 -11 0 0 9 0 8 -40 7 -40 6 -38 -19 -38 -19 -122 -41
-123 -41 -15 0 -15 0 -22 -13 -22 -14 -65 -18 -65 -17 -20 -9 -20 -9 -34 -10
-33 -9 -67 53 -66 53 -30 30 -30 30 -22 27 -23 27 -17 -4 -18 -5 -37 -7 -38
-6 0 -52 0 -52 -15 -25 -14 -25 -10 -20 -9 -20 -23 -22 -24 -22 -30 -11 -30
-12 -85 -1 -85 -1 -49 23 -48 24 -20 33 -19 32 -13 5 -14 6 -12 38 -12 38 -8
8 -7 8 -69 15 -69 15 -27 4 -27 4 -6 -19 -6 -18 -44 -37 -44 -36 -68 -65 -68
-66 -32 5 -32 6 -33 14 -33 15 -40 16 -40 17 -25 13 -25 13 -29 7 -30 7 -25
18 -26 18 -51 17 -51 17 -48 30 -47 30 -14 -11 -13 -12 -43 -1 -43 -2 -4 10
-5 10 33 22 33 22 56 0 57 -1 12 -10 12 -9 78 11 78 11 25 2 25 1 10 13 10 12
30 5 30 4 83 -3 82 -4 28 -15z m-1152 -27 l59 -10 40 -13 40 -14 84 -28 84
-27 56 1 55 1 23 -14 22 -15 12 0 12 0 16 -14 16 -14 45 -15 45 -16 85 -39 85
-39 120 -47 120 -47 43 -19 43 -20 30 0 30 0 110 96 109 97 0 9 0 8 24 11 24
11 11 24 11 24 25 0 25 0 0 -13 0 -12 26 -50 27 -50 37 -36 37 -36 42 -19 41
-18 0 -10 0 -11 -25 -50 -24 -50 -1 -12 0 -12 -11 -7 -12 -7 -1081 1 -1081 2
-10 0 -11 0 -18 153 -18 152 -14 43 -14 43 0 24 0 25 24 0 25 0 7 -11 7 -11
81 4 81 5 65 33 65 33 30 8 30 7 66 1 65 1 60 -11z m3869 -18 l5 -10 -31 -35
-31 -35 6 -10 6 -9 15 -137 15 -137 11 -46 10 -45 -14 -14 -13 -14 -820 -2
-819 -3 -22 -8 -23 -8 -13 28 -12 29 -19 30 -19 30 -19 28 -20 28 6 14 5 14
35 23 35 23 30 57 31 57 0 19 0 20 14 11 15 12 82 -85 83 -86 8 0 8 0 20 -20
20 -20 23 0 22 0 170 59 170 59 75 27 75 27 11 9 11 9 64 19 64 20 49 24 49
24 49 -34 50 -33 13 0 13 0 12 -16 13 -15 36 -16 36 -15 110 -1 110 -2 42 20
42 20 1 13 0 12 16 0 16 0 -12 15 -12 14 7 11 6 10 14 0 15 0 16 25 16 25 9 0
8 0 6 -9z m-1879 -379 l7 -37 14 -30 13 -30 9 -15 9 -15 31 -70 31 -70 15 -25
14 -25 23 -45 22 -44 18 -18 18 -18 0 -8 0 -8 -100 -104 -101 -105 -16 -27
-17 -28 -11 0 -11 0 -26 -30 -26 -30 -24 0 -25 0 -99 105 -99 106 -8 14 -8 15
-14 0 -14 0 -6 19 -6 20 -22 7 -22 7 -7 11 -8 11 0 18 0 18 30 32 31 32 24 35
23 35 37 73 37 72 8 0 8 0 22 63 22 62 13 32 14 31 85 0 85 1 7 -37z m2476
-19 l18 -18 20 -75 20 -75 0 -77 0 -78 -46 0 -46 0 -45 -31 -46 -30 -13 5 -14
5 0 44 0 45 -6 28 -6 29 -28 35 -28 35 -19 -17 -18 -16 -70 -22 -70 -23 -90
-44 -90 -44 -15 -9 -15 -9 -70 -35 -70 -34 -38 -26 -38 -26 -5 0 -6 0 -96 -72
-97 -72 -8 -13 -8 -13 -12 0 -13 0 -17 -30 -18 -30 -20 -11 -20 -10 -24 15
-25 16 -15 30 -16 30 11 20 11 20 12 0 13 0 26 28 27 27 33 28 33 28 76 59 77
60 9 0 10 0 23 25 23 25 8 0 8 0 65 45 66 45 37 19 38 20 72 35 72 36 6 10 6
10 22 0 22 0 26 14 25 13 105 36 104 36 20 5 20 5 49 -4 50 -5 18 -17z m-2874
-168 l6 -6 -12 -17 -13 -17 -16 -37 -16 -38 -96 0 -96 0 -225 -6 -225 -6 -7
-7 -7 -6 7 -100 7 -100 200 1 200 2 65 5 65 5 23 7 24 8 29 -32 29 -32 0 -8 0
-8 36 -39 36 -39 57 -60 57 -60 40 -36 40 -36 21 -12 22 -11 39 0 39 0 39 26
39 27 110 112 110 113 26 33 26 33 217 -2 217 -2 -3 118 -3 117 -222 -4 -223
-4 -15 13 -16 13 -15 35 -14 35 11 13 12 14 735 -2 735 -3 4 -11 3 -10 -42
-22 -43 -21 -50 -35 -50 -36 -7 0 -7 0 -59 35 -60 35 -58 15 -58 15 -48 0 -49
0 -32 -14 -32 -13 -47 -39 -47 -39 -86 -97 -85 -96 0 -10 0 -10 -30 -25 -30
-26 0 -7 0 -7 -30 -41 -31 -41 -39 -54 -40 -54 -20 -42 -21 -42 -17 -15 -17
-15 -300 -7 -300 -7 -445 -5 -445 -5 -725 -8 -725 -8 -11 11 -12 11 -17 95
-17 95 -8 55 -9 55 -16 105 -16 105 -9 70 -9 70 -9 38 -10 38 12 12 12 12
1043 -2 1043 -2 6 -6z m-2165 -52 l5 -8 11 -100 11 -100 10 -55 9 -55 15 -90
16 -90 11 -60 11 -60 3 -20 4 -20 6 -35 7 -35 -49 -33 -48 -33 -45 -35 -45
-34 -26 -24 -25 -23 -22 -7 -22 -7 0 -9 0 -8 -61 -43 -62 -44 -30 -25 -29 -25
-23 -20 -22 -20 -29 -17 -29 -17 -104 -83 -104 -83 -54 -48 -55 -49 -15 15
-14 14 -9 39 -9 39 -6 95 -6 95 -9 20 -8 20 -12 90 -12 90 -14 73 -15 73 6 18
6 19 61 41 60 41 52 44 51 45 45 38 46 38 54 45 53 45 46 40 46 40 25 23 25
23 20 19 21 20 7 0 7 0 41 38 40 37 36 33 35 32 8 0 7 0 39 40 39 40 7 0 7 0
4 -7z m3839 -62 l23 -10 56 -15 57 -16 5 -19 5 -20 -31 -28 -30 -28 -65 -63
-66 -63 -9 16 -9 16 13 48 12 48 -6 18 -7 17 -13 -4 -12 -4 -24 -47 -23 -47 7
-87 7 -86 23 -23 23 -23 6 -18 6 -18 53 -41 52 -41 57 -18 57 -18 26 11 25 12
0 10 0 11 -47 20 -48 21 19 12 20 11 20 21 21 21 25 13 25 13 51 44 51 43 20
0 21 0 4 -36 4 -36 -9 -66 -8 -66 -36 -63 -35 -63 -13 0 -14 0 -6 -19 -6 -19
-97 -49 -97 -49 -45 -14 -45 -14 -39 -24 -38 -24 -36 -5 -37 -6 -30 -18 -30
-17 -102 -42 -103 -42 0 -9 0 -9 -40 -20 -40 -20 0 -20 0 -20 20 0 21 0 64 30
64 30 19 0 19 0 31 16 32 15 62 19 63 19 120 46 120 46 20 6 20 6 12 9 12 10
33 17 33 18 26 14 26 15 39 34 38 35 32 33 31 33 58 -3 58 -3 4 -11 4 -12 -28
-26 -28 -26 -104 -85 -104 -85 -7 0 -8 0 -34 -32 -33 -33 -33 -27 -32 -28 -8
0 -7 0 -40 -38 -40 -37 -35 -26 -35 -26 -35 -37 -35 -36 -12 0 -13 0 0 -8 0
-9 -59 -50 -59 -50 -244 -7 -243 -6 -580 -10 -580 -9 -360 -6 -360 -6 -47 -5
-48 -6 -7 18 -6 17 11 42 11 42 7 68 7 68 -14 -5 -14 -5 -9 -31 -9 -32 -8 0
-9 0 0 -15 0 -15 -37 -92 -37 -93 -12 -8 -12 -7 -7 -32 -7 -32 -20 -34 -19
-35 -25 -64 -24 -65 -21 -42 -21 -41 -14 -28 -14 -29 0 -20 0 -19 -14 -15 -14
-14 -4 -12 -5 -13 -109 2 -109 2 -75 17 -75 16 -63 19 -64 19 -25 20 -26 20
-9 0 -10 0 -59 41 -59 42 0 8 0 8 -20 6 -20 6 0 13 0 13 -25 23 -25 23 0 16 0
16 65 67 65 68 0 10 0 9 30 23 30 22 0 11 0 10 28 35 29 35 24 45 24 45 23 34
22 34 0 14 0 14 -15 6 -16 6 -30 -34 -30 -34 -54 -60 -53 -60 -35 -40 -34 -40
-6 -17 -6 -18 -338 0 -338 -1 -87 -6 -88 -6 0 16 0 16 71 46 70 45 12 10 12
10 57 43 58 42 35 25 35 25 29 25 29 25 50 38 50 37 11 0 10 0 8 13 8 12 48
35 48 35 40 33 41 32 14 0 14 0 0 15 0 14 23 12 22 12 53 40 53 40 202 3 202
3 390 5 390 6 380 5 380 5 300 5 300 5 198 6 197 6 0 -26 0 -26 -10 0 -9 0
-16 -30 -15 -29 0 -14 0 -15 20 -5 19 -5 12 14 11 14 52 79 51 78 55 78 55 77
15 25 15 25 30 32 30 32 30 39 30 39 20 21 20 21 60 70 60 69 55 57 55 57 37
1 37 0 23 -9z m-4922 -135 l-10 -10 1 35 0 34 10 -24 10 -24 -11 -11z m4010
45 l0 -10 -10 -6 -10 -6 0 15 0 16 10 0 10 0 0 -9z m135 -10 l5 -10 -8 -5 -9
-5 -19 14 -19 14 22 1 22 0 6 -9z m2023 -13 l12 -12 0 -52 0 -53 -12 -7 -12
-8 -42 3 -41 2 -21 -26 -21 -27 -18 4 -18 3 -3 56 -3 56 17 14 17 14 41 22 41
21 26 1 25 1 12 -12z m-631 -60 l10 -13 21 -120 21 -120 5 -65 5 -66 -9 -14
-9 -14 -88 2 -88 1 -7 1 -8 0 7 108 6 107 -22 35 -21 35 0 23 0 23 34 14 34
15 4 8 3 8 35 22 35 22 11 0 12 0 9 -12z m631 -120 l12 -12 0 -73 0 -72 -16
-9 -16 -9 -47 5 -47 4 -13 -16 -13 -16 -19 0 -19 0 0 58 0 59 16 31 15 32 17
0 17 1 25 14 25 14 26 1 25 0 12 -12z m-12 -229 l17 -18 -6 -48 -6 -48 -21
-194 -21 -194 -10 -18 -10 -19 -27 -6 -27 -6 -20 -5 -20 -4 -32 -17 -31 -16
-16 13 -16 13 6 9 5 9 19 68 19 67 15 142 16 142 0 44 0 44 23 21 22 21 34 14
34 14 18 -4 18 -5 17 -19z m718 -131 l16 -22 0 -26 -1 -25 -12 -21 -12 -22
-30 -24 -30 -25 -32 -17 -32 -16 -25 0 -25 0 -11 21 -11 20 16 50 17 50 14 6
13 5 7 20 6 20 31 13 32 14 27 1 27 0 15 -22z m126 -180 l0 -22 -11 11 -11 11
6 11 7 11 5 0 4 0 0 -22z m-376 -34 l6 -16 18 7 17 6 -12 -12 -13 -13 0 -28 0
-28 -18 -18 -19 -19 -6 -16 -6 -17 -22 0 -21 0 5 -14 6 -15 -15 6 -14 5 6 37
7 36 8 5 7 5 4 30 3 30 21 3 22 3 -5 20 -5 19 10 0 10 0 6 -16z m421 -57 l18
-14 -6 -44 -6 -44 -40 -76 -40 -77 -59 -79 -59 -78 -34 -35 -34 -36 -71 -62
-72 -62 -28 0 -28 0 -55 14 -56 15 -26 5 -27 6 -7 17 -6 18 38 35 39 35 30 40
29 40 35 70 35 70 8 3 8 4 25 51 26 51 37 36 36 35 33 24 34 23 46 13 47 13
56 1 55 1 19 -13z m-555 -238 l0 -29 -8 0 -8 0 -18 -31 -18 -30 6 -6 5 -5 -19
-39 -20 -38 -17 -10 -18 -10 13 -12 12 -13 0 -9 0 -8 -19 6 -19 6 -6 -16 -5
-15 -20 0 -20 0 5 -14 5 -14 -19 -13 -18 -14 -15 -32 -14 -33 -13 0 -13 0 -80
-81 -80 -81 -31 13 -32 13 -43 41 -43 42 0 16 0 16 -13 -5 -13 -4 -2 92 -3 93
15 20 15 20 1 28 0 28 43 40 42 40 52 24 51 24 7 10 6 11 31 0 30 0 52 -16 51
-17 16 -8 17 -8 22 6 22 6 7 -10 6 -9 43 4 42 4 0 10 0 10 -15 -6 -15 -5 0 14
0 14 22 15 21 15 9 -5 8 -5 0 -30z m-71 -373 l66 -34 28 -11 27 -11 0 -50 0
-50 -27 0 -28 0 -80 28 -80 27 -12 8 -13 8 0 40 0 39 12 20 13 20 13 0 14 0
67 -34z m-107 -145 l33 -19 64 -21 64 -21 24 0 23 0 0 -20 0 -19 -45 -27 -45
-26 0 -9 0 -9 -15 0 -14 0 -38 -17 -38 -17 -15 -12 -15 -11 -47 -13 -47 -12
-55 6 -54 7 -17 13 -17 12 7 42 7 42 68 61 68 61 23 13 24 13 12 1 12 1 33
-19z m-5691 -373 l0 -13 4 -37 4 -38 -33 0 -33 0 -24 -21 -23 -20 -24 6 -24 6
7 -22 7 -22 -16 6 -17 7 -5 -15 -6 -14 -19 -6 -19 -6 0 -15 0 -14 -14 0 -15 0
-7 11 -7 12 21 16 21 16 16 58 17 58 15 -5 15 -6 5 21 6 21 31 14 31 13 43 1
42 0 1 -12z m-256 -49 l7 -10 -18 -14 -19 -13 -17 15 -18 16 6 8 5 9 24 0 24
0 6 -11z m292 -204 l13 -50 0 -26 0 -27 -16 -6 -16 -6 -28 0 -29 0 -16 -22
-16 -23 16 -3 15 -3 29 21 30 21 26 -7 26 -7 9 -23 10 -24 -6 -30 -6 -30 10 0
11 0 10 -37 11 -37 -13 -8 -12 -8 -25 0 -25 0 -53 -46 -53 -46 -7 7 -7 7 0 62
0 63 -14 17 -14 17 11 36 11 36 -20 16 -20 16 -11 65 -10 65 11 28 11 28 22 9
23 9 49 -2 50 -2 13 -50z m-317 1 l0 -23 -30 5 -30 4 0 8 0 8 15 6 15 5 0 17
0 16 15 -12 15 -12 0 -22z m-60 -62 l0 -24 -27 -17 -28 -18 -13 -18 -14 -18
-21 3 -22 2 -11 -6 -10 -7 0 57 1 57 40 5 40 6 20 11 20 11 12 -10 13 -10 0
-24z m-189 -76 l-8 -23 -17 -3 -16 -3 0 10 0 10 22 15 22 16 3 0 2 0 -8 -22z
m33 -115 l28 -26 -6 -66 -7 -66 -13 -15 -13 -15 -7 -27 -6 -28 -25 0 -24 0
-22 23 -21 22 -9 24 -10 25 6 54 6 54 27 34 27 34 20 0 20 0 29 -27z m-134
-310 l20 -17 0 -13 0 -13 -9 0 -10 0 -6 20 -6 20 -10 0 -9 0 0 10 0 10 5 0 5
0 20 -17z M4317 2909 l-5 -17 14 -82 13 -83 8 -6 8 -6 442 3 442 3 -6 62 -5
62 -7 39 -6 40 -447 0 -447 1 -4 -16z M3788 2667 l-47 -42 -46 -37 -46 -38
-10 0 -11 0 -30 -30 -30 -31 -32 -16 -31 -16 -21 -21 -20 -21 -24 -15 -23 -15
-36 -31 -36 -31 -23 -12 -24 -13 8 -26 7 -27 6 -80 6 -80 20 -3 20 -2 49 45
48 45 42 33 41 33 28 14 27 13 0 9 0 8 43 27 42 27 56 48 57 48 11 0 10 0 10
19 10 19 25 6 25 6 6 20 6 19 -10 38 -10 38 -5 50 -4 50 -1 8 -1 7 -17 0 -18
0 -47 -43z m-78 -207 l0 -10 -15 0 -15 0 0 10 0 10 15 0 15 0 0 -10z m-74 -66
l-16 -15 0 11 0 11 12 22 12 22 4 -17 3 -18 -15 -16z m-79 -29 l-12 -25 -13 0
-12 0 16 25 16 25 8 0 8 0 -11 -25z M3485 390 l-29 -30 5 -5 5 -4 37 25 37 25
0 9 0 10 -13 0 -13 0 -29 -30z M2910 8792 l0 -9 58 -14 57 -14 135 0 135 1 73
13 72 13 0 9 0 9 -265 0 -265 0 0 -8z M3830 8792 l0 -7 94 -23 94 -22 109 0
110 0 204 21 204 20 10 10 9 9 -417 0 -417 0 0 -8z M5066 8791 l9 -9 105 -22
105 -21 110 -5 110 -4 124 22 124 23 5 13 4 12 -353 0 -353 0 10 -9z M5901
8686 l-23 -24 16 -48 16 -49 14 -60 14 -60 -4 -6 -4 -6 -52 -7 -53 -7 -32 -10
-33 -11 0 -9 0 -9 -30 0 -30 0 0 18 0 17 -15 45 -15 45 -17 38 -16 37 -37 0
-37 0 -17 -19 -18 -20 8 -23 7 -23 23 -31 24 -30 15 -44 15 -43 -5 -16 -5 -16
-37 -25 -37 -25 -50 -50 -51 -50 -17 -30 -17 -30 -10 -15 -9 -15 -28 -55 -27
-55 -7 -30 -6 -30 -14 0 -13 0 -34 45 -33 45 -6 17 -6 17 -19 6 -18 6 -21 35
-22 34 -8 0 -8 0 -42 38 -41 37 -41 22 -41 22 -6 10 -6 9 -50 20 -50 20 -5
143 -5 144 -29 3 -28 4 -11 -11 -10 -10 2 -111 2 -110 -33 6 -33 7 -40 13 -40
14 -51 0 -51 0 -18 20 -17 19 -14 78 -14 78 -10 23 -10 22 -20 0 -21 0 -20
-10 -19 -11 0 -28 0 -28 21 -67 21 -66 -6 -15 -5 -15 -40 0 -39 0 -81 -23 -81
-24 -14 16 -14 16 -20 45 -21 45 -14 37 -15 36 -22 7 -21 7 -24 -16 -25 -16 0
-26 0 -25 24 -32 24 -32 7 -22 6 -23 8 0 8 0 11 -25 12 -26 0 -9 0 -9 -30 -16
-31 -16 -48 -37 -49 -37 -49 -60 -50 -60 -18 -40 -18 -40 -12 -15 -12 -15 -26
-85 -25 -85 -12 -105 -11 -105 15 -130 15 -130 26 -90 26 -89 10 -12 10 -12 9
-31 9 -31 -8 -4 -7 -5 -54 -5 -53 -5 -28 -20 -28 -21 -10 0 -11 0 -52 -35 -53
-36 -31 -22 -31 -23 -55 -62 -56 -62 -17 -37 -17 -38 -18 -20 -17 -20 -18 -70
-19 -70 0 -77 0 -77 17 -19 17 -19 0 -22 0 -22 15 -5 15 -6 0 -14 0 -13 33
-25 32 -25 48 -20 49 -21 106 0 107 1 50 17 50 17 0 15 0 15 -115 1 -115 1
-54 13 -54 13 -4 18 -5 18 -29 10 -29 10 -30 63 -31 63 -1 50 0 50 21 65 22
64 17 26 17 25 10 16 10 16 20 29 20 29 51 53 52 54 23 14 24 14 64 31 64 31
66 20 66 21 40 0 40 1 63 -12 64 -11 44 -26 45 -26 11 -25 11 -24 14 0 13 0 0
-23 0 -23 15 -20 14 -19 1 -43 0 -44 -16 -56 -15 -57 -5 -15 -5 -15 1 -5 1 -5
26 -2 25 -2 37 -25 36 -25 45 -17 45 -17 15 -12 15 -13 120 -30 120 -31 100
-2 100 -2 48 8 47 7 6 9 5 9 22 0 22 0 40 14 40 14 50 28 50 28 57 43 56 43
34 36 33 37 18 18 17 19 0 8 0 9 28 39 28 39 16 45 16 45 11 43 12 42 14 0 14
0 32 -47 32 -46 76 -74 76 -73 8 0 9 0 41 -32 41 -33 38 -17 38 -17 0 -14 0
-13 -30 -22 -29 -22 -7 0 -6 0 -42 -28 -41 -28 -33 -13 -33 -14 3 -21 3 -21
40 3 40 3 10 13 10 13 45 23 45 22 25 23 25 23 60 31 59 32 6 8 5 8 43 22 42
21 12 20 13 20 9 0 9 0 81 69 81 69 70 70 70 69 63 69 63 69 42 46 42 46 21
24 21 24 75 68 75 68 52 34 52 34 72 22 71 21 45 -6 44 -6 42 -25 42 -24 23
-56 23 -56 -7 -66 -7 -67 -8 -11 -8 -10 -7 -30 -8 -30 -24 -32 -24 -32 0 -6 0
-6 -39 -53 -39 -52 -80 -70 -80 -69 -54 -38 -53 -38 -52 -37 -53 -37 -42 -26
-43 -27 -78 -40 -78 -40 -12 -10 -12 -9 -55 -17 -55 -18 -6 -10 -6 -10 -64
-23 -64 -22 -85 -33 -85 -32 -55 -14 -55 -14 -27 -15 -26 -15 -20 0 -20 0 -12
-15 -12 -15 6 -15 5 -15 24 0 23 0 20 15 19 14 40 1 40 0 45 11 45 10 100 30
100 31 80 30 80 30 10 7 10 8 63 23 62 22 0 8 0 8 38 12 37 13 15 12 15 12 70
38 70 38 50 33 50 33 18 15 17 16 14 0 13 0 117 115 116 115 0 14 0 14 35 52
35 52 0 12 0 11 23 35 24 35 8 55 9 55 0 65 0 65 -24 50 -25 50 -43 42 -43 43
-42 11 -42 12 -55 0 -55 1 -57 -9 -58 -8 0 23 0 22 -16 56 -16 57 -13 15 -12
15 -17 44 -17 44 -20 25 -19 25 0 8 0 8 -46 63 -45 63 -16 25 -16 25 -83 74
-82 74 -34 21 -33 20 -3 8 -3 7 -65 31 -65 31 6 32 7 32 24 59 24 59 0 23 0
23 -39 11 -39 10 -18 -7 -19 -7 -7 -10 -8 -11 0 -33 0 -33 -11 -47 -12 -47 -6
-7 -7 -8 -39 11 -40 11 -70 7 -69 6 -19 80 -18 80 -9 35 -9 35 -6 23 -6 22
-33 0 -33 0 -22 -24z m326 -347 l73 -20 78 -42 78 -42 34 -20 33 -20 112 -110
112 -110 35 -55 35 -55 51 -105 51 -105 11 -52 11 -52 -11 -20 -11 -21 -32
-13 -32 -14 -29 -24 -29 -24 -77 -72 -76 -73 -11 0 -11 0 -6 16 -6 16 0 36 0
37 -11 45 -10 45 -31 75 -31 75 -28 42 -29 41 -52 45 -53 44 -68 33 -68 33
-69 5 -68 5 -35 -7 -35 -7 -38 -29 -39 -30 -7 -7 -7 -8 -30 -35 -29 -35 -17
-40 -17 -40 -11 -40 -10 -40 -4 -100 -5 -100 13 -60 12 -60 24 -64 24 -64 20
-25 19 -25 0 -9 0 -10 51 -64 51 -64 42 -35 43 -35 8 0 9 0 22 -21 23 -21 -11
-22 -10 -21 -69 -43 -69 -44 0 -9 0 -9 -24 0 -23 0 -89 59 -89 58 -14 17 -13
16 -11 0 -10 0 -71 73 -71 72 -39 48 -39 48 0 27 1 27 7 71 8 71 -12 79 -11
79 -20 75 -19 75 -23 66 -24 67 -11 13 -11 14 -17 34 -17 35 5 58 5 58 31 64
31 64 41 62 41 63 47 44 46 45 52 34 53 34 65 21 65 21 47 8 48 9 105 -5 105
-5 72 -20z m-1682 -33 l70 -14 75 -22 75 -22 15 -12 15 -13 40 -18 40 -18 45
-31 45 -31 70 -56 70 -56 57 -65 56 -64 51 -79 51 -80 0 -13 0 -12 23 -38 24
-37 6 -35 7 -35 26 -80 27 -80 0 -185 1 -185 -38 -100 -37 -100 -19 -20 -20
-21 0 -11 0 -11 -34 -41 -34 -41 -4 -8 -3 -8 -66 -55 -67 -54 -63 -32 -64 -32
-80 -17 -80 -16 -65 -3 -65 -3 -120 24 -120 24 -95 48 -94 47 -28 23 -28 24
17 31 17 32 0 76 1 76 -11 14 -11 14 -7 27 -6 26 -50 42 -49 41 -33 10 -33 10
-102 6 -101 6 -5 21 -5 21 -14 36 -14 37 -10 13 -11 14 -13 60 -13 60 -13 56
-14 57 0 121 0 121 20 93 20 92 36 70 36 70 41 55 42 55 44 43 45 42 6 0 7 0
40 29 39 28 40 13 39 13 42 14 42 14 83 8 83 8 20 1 20 1 70 -13z m1694 -534
l71 -29 18 -16 19 -17 9 -1 9 0 35 -45 35 -44 11 -13 10 -12 36 -75 36 -75 15
-75 16 -75 6 -42 7 -43 -23 -37 -23 -38 -35 -38 -36 -37 -65 -64 -65 -64 -39
-31 -39 -31 -13 0 -12 0 -44 34 -44 33 -11 4 -10 4 -54 65 -55 65 -37 66 -36
66 -17 89 -17 89 -4 37 -5 38 17 77 16 78 11 30 11 30 20 28 19 28 42 27 41
27 40 6 40 6 12 1 12 2 70 -28z M4648 7871 l-27 -9 -54 -31 -54 -31 -24 -30
-24 -31 -27 -47 -28 -47 -4 -10 -3 -10 -12 -61 -11 -60 0 -65 0 -64 15 -70 15
-70 23 -65 24 -65 19 -31 19 -31 28 -42 27 -41 43 -43 43 -42 30 -25 29 -26
69 -32 68 -32 62 -11 62 -12 56 17 55 16 13 15 12 15 12 0 12 0 44 48 44 47
28 57 27 56 11 64 10 63 0 46 0 46 -15 87 -15 86 -21 63 -22 62 -28 39 -29 40
0 11 0 12 -91 86 -91 87 -70 35 -69 36 -77 4 -77 5 -27 -9z m173 -97 l16 -14
15 0 15 0 41 -30 42 -30 8 0 9 0 57 -63 57 -64 25 -37 25 -37 20 -57 21 -57
15 -55 16 -55 0 -80 1 -80 -27 -78 -27 -79 -37 -43 -36 -43 -47 -26 -48 -26
-48 0 -49 0 -25 15 -25 14 -20 10 -20 9 -31 12 -32 11 -61 62 -61 61 0 9 0 8
-21 22 -21 22 -19 37 -19 37 -21 53 -21 53 -14 53 -14 53 0 89 0 88 13 29 14
28 25 50 25 49 46 40 47 39 47 13 48 12 40 -5 40 -6 16 -13z M4734 7580 l-21
-8 -28 -48 -28 -47 7 -84 6 -83 14 -37 13 -38 13 -39 12 -39 34 -44 34 -45 0
-6 0 -7 59 -29 60 -29 34 6 35 5 22 19 21 18 15 34 14 33 0 59 0 58 -11 53
-12 53 -30 63 -30 63 -18 10 -19 10 0 14 0 15 -51 40 -51 40 -36 -1 -37 0 -21
-9z m105 -157 l10 -18 20 13 21 12 0 -32 0 -31 16 -18 15 -17 14 -54 13 -53
-2 -30 -1 -30 -28 -13 -28 -13 -33 28 -33 28 -13 20 -14 20 -9 45 -8 45 -6 43
-5 42 21 0 21 0 0 15 0 15 10 0 9 0 10 -17z M6139 7590 l-36 -19 -18 -38 -18
-38 -5 -48 -5 -48 13 -62 13 -62 18 -40 18 -40 23 -25 23 -25 59 -43 59 -42
24 0 24 0 26 17 25 17 19 44 19 44 0 65 0 65 -16 56 -16 57 -9 10 -9 9 0 18 0
18 -20 12 -20 13 0 8 0 9 -21 29 -21 29 -35 15 -35 15 -22 0 -21 -1 -36 -19z
m79 -140 l-12 -20 12 -12 12 -12 0 12 0 12 16 0 17 0 13 18 13 17 1 -26 0 -26
6 -32 7 -31 13 0 14 0 0 -35 0 -35 -10 0 -10 0 0 11 0 10 -10 -6 -10 -6 0 -19
0 -19 -11 -28 -11 -28 -31 65 -31 65 -4 -20 -4 -20 -8 -9 -9 -9 -7 27 -6 26 8
28 7 27 -2 17 -2 16 11 7 10 6 0 25 0 24 15 0 15 0 -12 -20z M6255 7400 l-6
-10 10 0 11 0 0 10 0 10 -4 0 -5 0 -6 -10z M2621 8546 l-12 -14 -22 -6 -22 -5
-23 -35 -23 -34 0 -54 0 -53 10 -30 9 -30 32 -67 32 -68 9 0 10 0 5 15 6 15
-12 30 -12 30 -8 0 -8 0 -16 49 -16 50 0 29 0 30 13 30 13 31 29 23 29 23 66
-3 65 -3 40 -29 40 -28 40 -39 40 -38 30 -58 29 -59 28 -19 27 -20 1 -47 1
-47 0 -35 1 -35 -4 -31 -5 -31 -8 -12 -7 -13 -19 5 -19 5 -19 -24 -19 -24 -27
0 -27 0 11 -14 11 -14 31 -6 30 -6 34 14 33 14 26 38 26 39 0 62 0 62 -20 14
-20 14 15 13 15 12 0 18 0 17 -18 24 -18 24 -14 30 -15 30 -17 13 -18 13 0 12
0 12 -33 36 -34 37 -21 6 -22 7 0 15 0 14 -40 25 -40 25 -18 0 -19 0 -18 20
-18 20 -47 0 -48 0 -11 -14z M7108 8499 l-28 -21 0 -84 0 -85 16 -31 16 -31
24 -26 24 -26 0 -6 0 -6 39 -13 39 -13 30 34 30 34 -3 63 -3 62 -10 13 -9 12
-7 28 -7 28 -45 44 -45 45 -17 0 -17 -1 -27 -20z m92 -83 l0 -18 31 -45 30
-46 -9 -9 -10 -10 -36 17 -36 17 0 20 0 19 -17 -3 -18 -3 0 35 0 35 18 -3 19
-3 5 21 6 22 8 -14 9 -13 0 -19z m-45 -116 l-6 -10 -10 0 -9 0 0 10 0 10 16 0
15 0 -6 -10z m61 -66 l-7 -18 -20 20 -20 20 7 18 7 18 20 -20 20 -20 -7 -18z
M2632 8098 l3 -23 15 0 15 0 0 20 0 20 -18 3 -19 4 4 -24z M2686 8081 l-6 -9
6 -15 6 -15 14 -6 14 -5 0 -13 0 -13 65 -37 64 -38 41 0 42 0 -4 13 -5 12 -39
5 -39 5 -42 28 -43 27 -8 0 -9 0 -9 32 -10 33 -16 3 -16 3 -6 -10z M2960 7642
l-35 -19 -9 -58 -10 -58 17 -29 17 -30 0 -15 0 -15 30 -37 30 -36 42 -42 43
-43 62 0 62 0 11 19 10 20 0 46 0 47 -41 79 -41 79 -29 21 -29 20 0 14 0 15
-22 14 -23 15 -25 6 -25 6 -35 -19z m94 -95 l31 -23 18 -7 17 -6 11 -27 10
-27 24 -23 25 -23 0 -16 0 -15 -15 0 -15 0 0 -9 0 -10 10 -6 10 -6 -5 -9 -5
-9 -51 1 -50 1 -12 17 -12 16 -18 7 -17 7 -7 31 -6 31 -28 10 -29 10 15 35 15
34 -1 7 -1 7 1 13 1 12 27 0 26 0 31 -23z M1825 7545 l-10 -4 -42 -11 -42 -11
-62 -59 -62 -60 -8 -48 -8 -47 -11 -69 -10 -69 16 -86 16 -86 11 -30 10 -30
17 -20 18 -20 7 -24 8 -25 46 -57 46 -57 25 -12 24 -11 13 -19 14 -19 51 -16
52 -15 37 0 37 0 52 12 52 12 11 23 10 23 9 0 9 0 30 32 29 32 0 8 0 8 25 52
25 52 0 99 0 100 -12 41 -11 41 -12 15 -12 15 -7 39 -7 38 -25 25 -24 24 0 8
0 9 -15 12 -15 12 0 19 0 18 -28 15 -28 15 -15 17 -14 17 -40 26 -40 26 -55
12 -55 12 -10 0 -10 -1 -10 -3z m138 -85 l27 -13 0 -19 0 -19 29 -10 29 -10 6
-25 7 -25 34 -20 33 -20 11 -31 11 -31 0 -14 0 -15 19 -26 19 -27 12 -60 12
-60 11 -7 11 -7 -17 -48 -17 -48 0 -18 0 -19 -14 -26 -14 -27 -6 -18 -6 -19
-20 -5 -19 -5 -6 -19 -6 -19 -43 -25 -43 -25 -8 0 -7 0 12 15 12 15 -28 -5
-29 -4 -36 -5 -36 -4 -12 8 -13 8 11 6 11 7 0 10 0 9 -21 0 -20 0 -21 11 -20
11 -29 31 -28 32 -1 13 0 12 -13 0 -14 0 -33 52 -34 52 -8 46 -7 45 -7 33 -6
32 13 31 13 32 -17 12 -17 12 0 21 0 21 28 45 27 45 19 5 19 5 -11 13 -11 14
12 24 13 25 57 6 58 6 7 8 7 8 -13 4 -12 5 4 7 5 8 48 -7 48 -7 28 -13z m224
-262 l-5 -13 -1 19 -1 19 6 -6 6 -6 -5 -13z M7481 7161 l-14 -9 7 -11 7 -11
14 0 14 0 78 -25 78 -25 45 -31 45 -30 47 -45 47 -45 7 -22 7 -22 6 -5 6 -5
18 -33 17 -34 0 -92 0 -92 -14 -19 -13 -20 -7 -31 -7 -32 -46 -46 -46 -47 -29
-6 -28 -6 -6 -8 -5 -9 -35 0 -34 0 0 -14 0 -14 31 -13 32 -12 45 12 46 12 36
27 37 27 27 32 27 32 24 72 25 73 0 55 0 56 -14 45 -15 45 -12 44 -13 44 -31
35 -30 36 -55 53 -55 53 -11 0 -11 0 -18 20 -18 20 -21 0 -21 1 -25 14 -25 14
-50 0 -50 1 -14 -9z M7465 7012 l-20 -4 -12 -10 -13 -10 0 -14 0 -14 25 -16
25 -16 25 16 25 16 0 14 0 13 -17 15 -18 14 -20 -4z M3902 6895 l-21 -26 11
-25 11 -24 26 0 27 0 22 16 22 15 0 17 0 17 -8 12 -8 13 -31 6 -30 6 -21 -27z
M7712 6868 l-12 -12 0 -19 0 -18 10 -20 11 -19 27 0 28 0 12 12 12 12 0 22 0
22 -12 9 -13 10 -26 6 -25 7 -12 -12z M7502 6838 l-12 -12 0 -26 0 -27 18 -16
19 -17 16 0 17 0 16 25 17 26 -28 29 -29 30 -11 0 -11 0 -12 -12z M3528 6782
l-37 -27 -1 -22 0 -22 20 -6 20 -6 29 6 29 6 15 17 15 17 3 20 4 20 -8 13 -8
12 -22 0 -22 -1 -37 -27z M3781 6696 l-23 -24 6 -20 7 -20 12 -5 13 -5 42 19
42 20 0 17 0 18 -12 12 -12 12 -26 0 -27 0 -22 -24z M7322 6679 l-23 -9 3 -17
3 -18 30 -3 30 -4 18 -15 17 -16 0 -12 0 -12 -72 -71 -73 -72 -66 -52 -66 -53
-34 -20 -34 -20 -45 -27 -45 -27 -65 -34 -65 -34 -25 -8 -25 -7 -14 -11 -13
-11 -37 -14 -36 -13 -33 -9 -33 -8 -12 -9 -12 -9 -40 -12 -40 -11 -100 -30
-100 -30 -75 -15 -75 -14 -140 -12 -140 -11 -230 11 -230 10 -90 10 -90 10
-35 6 -35 6 -110 24 -110 25 -90 21 -90 21 -10 7 -10 7 -58 12 -59 13 -158 52
-158 52 -23 15 -24 14 -57 19 -57 19 -5 13 -5 14 -15 0 -15 0 -66 36 -65 36 0
9 0 9 -40 20 -40 20 0 24 0 24 75 36 75 36 0 4 0 5 -15 14 -14 15 -48 -9 -48
-9 -42 -20 -42 -20 -53 -34 -53 -34 -27 -32 -28 -32 0 -7 0 -6 9 -14 9 -14 31
13 31 12 0 9 0 8 29 15 29 15 15 -22 14 -22 8 -25 7 -25 15 -16 14 -17 19 -38
20 -38 0 -13 0 -13 10 0 9 0 28 -54 28 -54 45 -89 44 -88 9 -6 8 -6 19 -36 20
-37 0 -14 0 -14 16 -13 17 -14 29 -60 30 -60 17 -30 17 -30 32 -57 33 -56 14
-12 15 -12 0 -14 0 -14 33 -49 32 -49 50 -82 50 -82 23 -23 22 -22 0 -11 0
-11 48 -63 47 -64 23 -29 22 -30 25 -37 24 -36 23 -24 23 -25 50 -58 50 -58 9
-15 9 -15 60 -61 59 -61 23 -26 22 -27 21 -6 22 -7 0 -12 0 -12 43 -38 42 -38
76 -60 77 -59 7 0 6 0 44 -30 44 -30 6 0 6 0 67 -33 67 -33 55 -16 55 -17 45
-11 45 -11 49 -16 49 -16 201 -1 201 0 50 16 50 15 75 18 75 18 82 43 83 42
65 52 65 52 0 9 0 9 12 0 12 0 35 38 35 37 23 33 23 33 0 3 0 4 29 31 30 32
11 33 11 34 14 6 15 5 0 16 0 15 10 18 10 17 26 70 26 70 8 35 7 35 12 30 12
30 19 75 18 75 15 55 15 55 7 55 6 55 24 120 24 120 21 245 22 245 9 145 10
145 9 48 10 48 0 68 0 69 15 12 14 12 23 -7 23 -8 50 -33 50 -33 14 14 15 14
-14 27 -14 26 -36 18 -36 19 -13 15 -13 16 -17 0 -16 0 -38 20 -37 20 -37 -1
-38 0 -23 -10z m45 -325 l6 -17 -16 -86 -17 -86 -9 -105 -10 -105 -6 -95 -6
-95 -10 -85 -11 -85 -13 -75 -13 -75 -7 -50 -6 -50 -9 -35 -9 -35 -11 -75 -12
-75 -6 -15 -5 -15 -19 -65 -18 -65 -10 -37 -10 -37 -20 -33 -20 -33 0 -13 0
-13 -56 -112 -55 -112 -8 -5 -7 -5 -44 -60 -44 -60 -26 -29 -25 -29 -30 -28
-30 -29 -12 0 -13 0 -20 20 -20 20 0 14 0 13 -35 24 -35 24 0 13 0 12 -13 0
-12 0 -52 35 -52 35 -7 0 -6 0 -31 13 -32 14 -35 13 -35 12 -55 8 -55 8 -16 7
-17 6 -3 194 -4 194 -17 17 -16 16 -12 -7 -11 -7 6 -17 7 -16 2 -20 3 -20 7
-42 8 -43 11 0 11 0 -12 -12 -12 -12 0 -22 0 -23 11 -7 11 -6 -9 -7 -10 -6 -9
-40 -10 -40 -17 0 -17 0 -16 -23 -16 -23 -13 11 -13 11 -6 -10 -6 -9 -62 -7
-63 -7 -64 -31 -63 -32 -23 -13 -23 -12 -17 6 -16 7 5 13 5 14 -17 1 -17 1
-40 3 -40 3 -45 16 -45 16 -41 0 -41 0 -53 -10 -53 -10 -6 -5 -5 -5 12 -12 12
-12 0 -8 0 -8 -28 0 -28 0 -12 12 -13 13 -9 -15 -10 -15 -3 -9 -3 -9 -45 17
-46 17 -36 33 -37 33 0 17 0 18 -19 5 -20 5 -10 27 -10 26 -26 28 -26 29 -13
-12 -14 -11 -7 20 -6 21 -14 0 -13 0 -6 16 -6 16 0 29 0 29 -15 0 -15 0 0 14
0 13 -26 47 -26 46 -18 -10 -19 -10 -13 0 -14 0 -22 43 -22 42 -12 20 -13 20
-22 28 -23 29 0 12 0 13 -25 23 -25 23 0 8 0 8 -57 87 -58 87 -22 31 -22 31 0
16 -1 17 -14 11 -14 12 -31 65 -32 66 -23 32 -23 31 -21 43 -22 43 0 13 0 13
-20 18 -20 18 0 16 0 16 -30 44 -30 44 0 14 0 13 -8 0 -8 0 -12 34 -12 33 -20
18 -20 18 0 11 0 11 -20 25 -20 25 0 19 0 18 28 -7 27 -6 15 -18 15 -18 65
-24 65 -23 45 -24 45 -24 25 -9 25 -8 70 -26 70 -26 78 -19 77 -18 13 -10 12
-9 39 -7 38 -7 17 -9 16 -9 50 -11 50 -11 95 -20 95 -20 9 -10 10 -9 54 0 53
0 20 -10 19 -11 -1 -22 0 -22 6 -60 5 -60 17 -110 17 -110 13 -16 14 -17 42
-11 42 -11 120 -9 120 -10 170 4 170 4 29 10 28 11 -7 27 -6 27 -10 83 -9 83
-19 81 -19 80 22 14 21 13 52 7 52 7 19 -6 20 -7 7 -26 6 -27 10 -90 9 -91 13
-67 12 -68 20 -13 20 -13 53 -12 54 -12 144 0 145 0 84 16 83 17 10 22 10 22
-8 94 -8 94 -13 75 -12 75 -24 81 -24 81 7 16 6 16 35 12 35 11 26 14 27 14
11 0 12 0 6 15 5 15 19 0 19 0 69 45 68 45 11 0 12 0 26 30 27 30 18 0 17 0
50 55 50 54 13 0 13 1 6 -16z m-673 -406 l5 -23 11 -85 12 -85 10 -18 9 -19
14 -79 14 -80 -5 -14 -6 -15 -202 0 -202 0 -12 12 -12 12 0 35 0 36 -15 80
-14 80 -10 40 -10 39 12 8 12 8 22 0 23 0 102 29 103 29 35 15 35 15 32 1 33
1 4 -22z m-1119 -104 l110 -16 105 -4 104 -4 7 -8 7 -7 17 -125 17 -125 15
-24 15 -24 -13 -8 -14 -9 -10 -1 -10 0 -75 1 -75 1 -169 14 -170 15 -9 9 -10
10 -14 123 -13 123 -8 25 -8 25 4 18 4 19 41 -6 42 -6 110 -16z m663 -1305
l23 -9 23 0 24 0 11 -14 12 -14 64 -17 65 -18 0 -8 0 -8 23 -6 22 -7 32 -24
32 -24 9 0 10 0 41 -41 42 -40 -3 -22 -3 -21 -25 -13 -25 -12 -42 -20 -43 -21
-102 -22 -103 -23 -210 0 -210 0 -79 18 -78 18 -67 23 -66 24 -35 16 -35 16
-55 35 -55 35 -32 15 -33 15 0 10 0 10 -11 0 -11 0 -29 21 -29 20 0 19 0 19
48 33 47 33 90 -1 90 -1 79 -26 78 -27 13 0 12 0 69 -36 69 -36 51 -33 51 -34
12 -15 13 -16 19 0 18 0 6 10 7 11 -54 50 -53 50 -15 12 -15 12 -28 18 -27 17
0 20 0 19 53 10 52 10 20 5 20 4 100 -5 100 -6 23 -8z M5096 5355 l-20 -15
-27 0 -28 0 -15 -16 -16 -15 0 -20 0 -19 3 0 3 0 42 20 41 20 20 0 20 0 15 16
16 15 0 15 0 14 -17 0 -18 -1 -19 -14z M5255 5310 l6 -10 20 0 19 0 0 10 0 10
-26 0 -25 0 6 -10z M5911 5292 l11 -17 60 -28 60 -27 12 0 11 1 -30 24 -30 25
-18 0 -17 0 -17 20 -17 20 -18 0 -18 0 11 -18z M5763 5277 l-42 -22 -10 -23
-11 -23 0 -29 0 -29 10 -6 10 -6 0 23 0 24 12 12 12 12 22 0 21 0 26 26 26 25
-2 20 -1 19 -16 -1 -15 0 -42 -22z M4936 5261 l-18 -20 7 -10 6 -11 15 0 14 0
0 24 0 24 13 5 12 5 -16 1 -16 1 -17 -19z M5276 5272 l-4 -8 17 -23 18 -23 1
31 1 31 -14 0 -14 0 -5 -8z M5341 5220 l1 -55 8 -25 8 -25 2 10 2 10 -2 60 -2
60 -9 10 -9 9 1 -54z M6070 5220 l0 -10 10 0 10 0 0 10 0 10 -10 0 -10 0 0
-10z M6123 5124 l4 -45 12 -12 12 -12 -5 50 -4 50 -1 8 -1 7 -10 0 -11 0 4
-46z M7100 6670 l0 -9 14 -8 13 -8 12 -22 12 -23 19 0 20 0 0 19 0 19 -36 21
-35 21 -10 0 -9 0 0 -10z M2038 6047 l-46 -43 -6 -40 -7 -40 9 -24 9 -24 22
31 23 31 19 -5 19 -5 0 16 0 16 41 0 40 0 20 -10 19 -11 0 -18 0 -17 35 -41
34 -40 -5 -6 -6 -5 12 -21 11 -21 9 0 9 0 -2 53 -2 52 -34 68 -34 68 -24 17
-24 17 -29 23 -28 22 -19 0 -20 0 -45 -43z M1744 5802 l-31 -17 -39 -22 -39
-22 -16 -23 -16 -23 -6 -43 -5 -44 -7 -6 -6 -6 -32 13 -32 13 -85 14 -85 13
-148 0 -148 1 -72 -11 -72 -11 -30 -25 -29 -25 -29 -67 -28 -66 -14 -40 -13
-40 -22 -75 -22 -75 -24 -80 -23 -80 -12 -70 -12 -70 -14 -27 -13 -28 -9 -153
-8 -152 -21 -39 -21 -39 -8 -6 -8 -6 -13 -20 -12 -20 -18 -35 -17 -35 -6 -5
-6 -5 -17 -34 -18 -33 -5 -72 -6 -72 12 -53 11 -54 32 -48 31 -48 39 -15 38
-16 26 0 25 0 31 16 30 16 23 -6 24 -6 6 -19 6 -18 42 -15 42 -15 36 -11 35
-12 37 0 36 0 5 9 6 9 32 7 33 7 120 7 121 7 44 34 44 35 16 15 16 16 21 40
21 40 7 44 7 43 47 51 46 50 13 14 12 13 0 69 0 68 -31 58 -30 59 -32 33 -31
32 -44 21 -43 21 -37 11 -37 10 -155 6 -155 6 -3 52 -3 53 12 57 11 58 8 40 8
40 15 72 15 72 19 38 20 39 7 30 7 31 29 28 28 27 94 -5 93 -6 40 -7 40 -6 13
-10 12 -10 0 -21 0 -21 9 -30 9 -31 13 -55 12 -55 25 -40 25 -40 9 -3 8 -4 13
-12 12 -12 50 -28 50 -27 115 -10 115 -9 81 -11 80 -12 65 16 64 16 50 7 50 7
10 7 10 7 75 22 75 23 33 19 33 19 44 11 44 11 52 52 51 51 18 35 17 35 7 48
6 49 -30 76 -31 76 -22 21 -22 22 -32 7 -31 7 -34 25 -33 25 -79 51 -79 50
-44 16 -43 16 0 14 0 13 -52 23 -53 23 -40 13 -40 13 -72 29 -72 28 -108 0
-108 -1 -31 -17z m275 -98 l54 -15 21 -14 21 -13 45 -13 45 -12 15 -12 15 -12
95 -47 95 -48 12 -10 12 -10 43 -23 43 -24 34 -16 35 -17 32 -24 32 -25 26
-37 26 -38 0 -46 0 -46 -33 -43 -33 -43 -69 -35 -70 -35 -115 -29 -115 -29
-65 -14 -65 -14 -145 0 -145 0 -61 9 -61 9 -42 26 -42 27 -9 23 -9 24 -11 4
-11 3 -9 40 -10 40 0 33 0 33 13 5 14 5 52 -21 52 -20 39 0 39 0 6 -9 5 -10
-21 -14 -21 -15 4 -19 4 -18 46 1 46 0 45 47 44 47 15 37 15 38 12 36 11 35 0
33 0 32 -25 77 -25 77 -25 28 -26 27 -14 0 -15 0 0 -24 0 -25 10 -6 10 -6 0
-20 0 -19 -12 0 -13 0 -75 21 -75 21 -24 9 -23 10 6 25 7 26 21 28 21 29 26
10 26 10 30 5 30 4 55 -5 55 -4 54 -15z m-589 -161 l154 -25 16 -7 15 -8 105
-17 105 -18 35 -13 35 -14 20 -3 20 -4 -1 -44 -1 -45 -17 -37 -16 -38 -25 0
-24 0 -53 19 -53 19 -55 11 -55 11 -50 9 -50 9 -80 20 -80 20 -85 8 -85 8 -25
-2 -25 -2 -42 -11 -42 -11 -36 -60 -35 -59 0 -13 0 -13 -25 -103 -26 -102 -15
-77 -14 -76 -7 -86 -6 -85 7 -55 7 -55 17 -11 18 -11 99 10 98 11 81 -12 81
-11 50 -25 50 -25 32 -29 32 -30 15 -46 16 -46 0 -18 0 -18 -16 -32 -16 -31
-16 -9 -17 -9 -20 17 -20 17 -18 21 -18 21 15 37 16 37 0 34 0 34 -24 0 -24 0
-15 -32 -15 -33 -15 -50 -15 -50 -12 -57 -13 -57 6 -41 5 -42 6 -5 6 -6 15 13
15 12 0 42 0 42 13 18 13 18 16 -16 17 -16 6 -54 7 -54 -11 -35 -12 -34 -22
-20 -22 -20 -29 -19 -29 -18 -69 1 -70 1 -35 34 -34 33 -19 41 -18 42 -7 30
-6 31 -13 10 -13 11 -17 -24 -16 -25 0 -20 0 -20 25 -69 25 -69 0 -22 0 -22
-57 6 -58 7 -33 16 -33 15 -29 29 -29 29 -11 37 -10 37 0 47 0 47 -12 7 -11 7
-22 -25 -22 -26 -14 -82 -13 -82 -12 -5 -12 -4 -29 14 -29 15 -11 24 -11 23
-11 28 -11 28 0 54 0 55 17 42 17 43 32 50 33 50 18 20 18 20 29 55 29 55 -2
85 -2 85 12 94 11 94 33 131 34 131 24 85 24 85 10 20 11 20 27 60 27 60 16
18 15 17 41 11 41 11 70 7 70 7 50 -4 50 -4 155 -25z M2802 5563 l-31 -15 -27
-35 -27 -35 44 5 44 6 37 7 37 6 38 -13 38 -12 38 -30 37 -30 0 -12 0 -13 35
-27 36 -27 6 -30 6 -30 13 -5 14 -5 0 -22 0 -21 6 -22 6 -23 13 0 12 0 6 -47
5 -48 -10 -12 -10 -13 16 -25 17 -26 -5 -17 -5 -17 -2 -95 -3 -95 -11 -15 -12
-15 -26 -49 -27 -49 0 -23 0 -23 -21 -14 -20 -15 -17 4 -17 4 -14 -9 -15 -9
13 -16 13 -16 -32 0 -32 0 -25 20 -26 20 -13 0 -13 0 -41 21 -41 21 4 12 4 11
-28 41 -27 40 -16 13 -16 13 0 18 0 18 -17 51 -16 51 -13 0 -13 0 -10 18 -10
17 -12 -12 -13 -13 17 -35 17 -36 0 -18 0 -19 27 -54 27 -53 32 -50 32 -50 39
-36 38 -36 25 -17 24 -16 79 0 79 0 39 40 39 40 0 8 0 7 35 39 35 40 0 23 0
24 10 18 9 18 16 103 15 104 0 40 0 41 -20 74 -20 75 0 20 0 21 -42 83 -43 82
-49 63 -50 62 -47 31 -47 31 -54 6 -55 5 -31 -15z M3944 5101 l-31 -19 -22
-31 -22 -30 7 -25 6 -24 -22 -12 -22 -12 5 -41 5 -42 10 -40 11 -39 15 -12 16
-11 0 -10 0 -10 31 -32 30 -32 25 -9 25 -10 23 0 22 0 33 34 33 34 -6 10 -6
10 19 5 18 4 6 33 7 32 0 47 0 46 -6 52 -7 51 -19 5 -19 6 -6 20 -5 20 -43 26
-44 25 -18 0 -18 0 -31 -19z m130 -88 l55 -47 -10 -13 -11 -12 7 -50 7 -50 -7
-29 -6 -30 -30 -6 -30 -6 6 -11 7 -10 -18 -20 -17 -19 -14 0 -13 0 -10 24 -9
24 -23 4 -23 3 0 20 0 20 -19 16 -19 16 -2 76 -1 75 35 29 35 28 21 7 20 6 6
1 7 1 56 -47z M7868 5093 l-48 -14 -6 -25 -6 -24 -9 0 -9 0 -20 -42 -20 -42 0
-17 0 -17 -14 -5 -14 -5 -6 -39 -7 -38 1 -54 1 -54 25 -30 24 -29 0 -14 0 -15
43 -19 42 -20 36 0 35 0 20 15 19 14 23 1 22 0 0 15 0 15 25 12 25 11 19 38
20 37 6 100 6 100 -11 7 -10 6 0 25 0 25 -15 29 -15 30 -28 13 -27 14 -40 5
-40 6 -47 -15z m115 -57 l22 -24 20 -4 20 -4 -2 -19 -2 -20 10 -6 9 -5 2 -35
1 -34 -8 -63 -7 -63 -19 -12 -19 -12 0 -12 0 -12 -24 -25 -23 -26 -17 0 -16 0
-20 -12 -19 -12 -25 13 -25 14 -15 -6 -15 -6 -21 44 -22 45 -8 5 -8 5 -1 37
-1 38 17 67 17 68 15 -3 16 -2 1 15 1 15 1 18 2 17 26 0 26 0 5 20 5 20 40 0
39 0 22 -24z M7781 4844 l1 -19 5 13 5 13 -6 6 -6 6 1 -19z M4341 4581 l-18
-18 -16 -6 -17 -6 0 -15 0 -14 -24 -29 -25 -29 -2 -85 -3 -84 9 -40 8 -40 12
-15 13 -15 7 -32 6 -32 47 -48 47 -48 52 -24 52 -24 53 27 53 27 23 39 22 39
0 38 0 39 16 22 16 23 -5 42 -6 42 -8 45 -9 46 -8 12 -7 12 -15 0 -14 0 0 8 0
8 12 12 12 12 -12 0 -13 0 -7 18 -7 19 -35 30 -35 30 -25 13 -25 14 -53 2 -53
3 -18 -18z m161 -58 l16 -14 19 3 18 3 0 -29 1 -30 12 -4 12 -4 0 -18 0 -18
15 -12 15 -12 0 -19 0 -18 10 -6 9 -6 -4 -87 -5 -87 -16 -12 -15 -11 12 -7 11
-8 -36 -33 -36 -33 0 -9 0 -9 -31 -7 -31 -6 -25 20 -26 20 -17 0 -18 0 -10 13
-10 12 -7 28 -7 27 -17 0 -16 0 -17 30 -16 29 -13 96 -13 95 21 28 20 27 6 27
7 26 18 -5 19 -4 17 26 18 27 46 -7 47 -7 17 -15z M7971 4249 l-40 -30 -12
-36 -11 -36 6 -54 6 -55 10 -18 9 -18 33 -4 33 -5 37 19 38 20 10 40 11 40 0
63 0 64 -10 19 -11 20 -34 0 -35 0 -40 -29z m49 -48 l0 -10 -10 -6 -10 -6 0
15 0 16 10 0 10 0 0 -9z m26 -109 l-6 -5 -6 5 -5 6 0 18 0 19 5 35 5 35 2 5 3
5 3 -59 4 -58 -5 -6z m-48 51 l-3 -26 -11 -4 -12 -4 -6 17 -6 17 11 13 11 14
10 0 9 0 -3 -27z m2 -68 l0 -15 -10 0 -10 0 0 15 0 15 10 0 10 0 0 -15z M7060
4132 l-25 -17 -5 -5 -5 -6 -53 -37 -52 -37 -9 0 -8 0 -24 -19 -25 -19 -24 -4
-25 -3 3 -22 3 -23 -15 0 -15 0 -24 11 -25 11 -26 -17 -26 -17 6 -10 6 -10 19
5 19 5 -11 -19 -10 -19 16 -6 15 -6 67 32 68 33 97 71 96 71 16 33 16 33 0 4
0 5 -7 -1 -8 0 -25 -17z M5380 4065 l0 -15 25 -10 26 -10 12 -10 12 -10 54
-35 53 -35 10 0 9 0 37 -25 37 -25 13 0 13 0 31 -16 32 -16 11 16 12 16 31 0
31 0 5 9 6 9 -32 7 -33 6 -17 5 -18 5 6 -15 6 -16 -10 0 -11 0 -6 10 -6 10
-18 0 -19 0 -5 20 -5 20 -31 6 -30 6 -17 19 -17 19 -22 0 -21 0 -54 35 -55 34
-22 1 -23 0 0 -15z M2975 3988 l-36 -33 -14 -56 -15 -55 10 -35 10 -34 0 -31
0 -32 14 -11 14 -12 21 -48 20 -48 25 -16 25 -17 28 -2 28 -1 22 7 22 7 26 56
25 55 -1 37 0 36 -12 57 -12 57 -8 7 -7 7 0 13 0 13 -25 37 -25 37 -18 12 -17
12 -32 7 -32 7 -36 -33z m108 -105 l-13 -5 -12 5 -13 5 25 0 25 0 -12 -5z m27
-45 l0 -8 -12 0 -12 0 18 -13 19 -14 4 -54 4 -54 -20 23 -20 24 -10 -7 -10 -6
-7 -35 -6 -35 -12 4 -11 4 2 21 3 21 -20 11 -20 11 0 46 0 45 25 -4 25 -5 0 8
0 9 -15 0 -15 0 0 18 0 18 45 -10 45 -11 0 -7z M6555 3893 l-60 -26 -262 0
-263 0 0 -8 0 -9 33 -1 32 -1 93 2 93 2 14 -12 14 -11 20 11 20 10 53 -1 53
-2 75 7 75 7 3 9 4 10 33 0 33 0 16 6 16 6 0 14 0 14 -17 0 -18 -1 -60 -26z
M5828 3843 l13 -5 6 6 6 6 -19 -1 -19 -1 13 -5z M6590 3843 l-25 -5 -9 -9 -10
-9 40 0 39 1 19 14 20 15 -25 -1 -24 -2 -25 -4z M6460 3800 l-15 -9 -21 5 -22
6 -7 -12 -7 -11 51 3 51 3 1 10 1 10 -9 2 -8 3 -15 -10z M6198 3783 l12 -5 13
5 12 5 -25 0 -25 0 13 -5z M2951 2831 l-13 -8 9 -6 9 -6 13 8 13 9 -9 5 -9 6
-13 -8z"/>
</g>
</svg>
