<?xml version="1.0" standalone="no"?>
<!DOCTYPE svg PUBLIC "-//W3C//DTD SVG 20010904//EN"
 "http://www.w3.org/TR/2001/REC-SVG-20010904/DTD/svg10.dtd">
<svg version="1.0" xmlns="http://www.w3.org/2000/svg"
 width="594.000000pt" height="250.000000pt" viewBox="0 0 594.000000 250.000000"
 preserveAspectRatio="xMidYMid meet">
<metadata>
Created by potrace 1.16, written by Peter Selinger 2001-2019
</metadata>
<g transform="translate(0.000000,250.000000) scale(0.184472,-0.062500)"
fill="#000000" stroke="none">
<path d="M1781 3922 l-21 -14 -44 11 -45 11 -31 0 -30 0 -20 -12 -20 -13 -21
13 -21 13 -11 -9 -12 -9 -22 -6 -23 -5 -6 9 -6 10 -14 -12 -14 -11 -15 12 -15
12 -21 -5 -21 -6 -23 9 -23 9 -6 -15 -6 -15 -20 11 -21 11 -12 -4 -12 -4 -19
9 -18 10 -11 -11 -11 -11 -20 0 -21 0 -30 -20 -29 -19 -23 14 -23 15 -6 -24
-6 -24 -31 -5 -32 -5 -50 -17 -50 -18 -17 -8 -18 -9 -14 0 -14 0 -6 -16 -6
-16 -25 6 -25 6 -10 -26 -10 -26 -29 -29 -29 -29 -16 0 -15 0 -6 -10 -6 -10
-23 0 -24 0 -12 -15 -13 -15 -16 2 -16 3 4 -15 4 -15 1 -35 1 -35 -25 1 -25 2
-24 7 -23 8 12 -22 12 -23 -5 -5 -5 -5 -20 11 -21 11 -6 0 -6 0 6 -19 5 -18
-6 -16 -6 -17 -20 11 -20 11 -6 -6 -5 -6 11 0 12 0 0 -11 0 -11 -21 5 -21 6 6
-16 6 -15 -21 -5 -20 -6 28 -18 28 -19 0 -12 0 -13 -37 -2 -38 -2 -30 -31 -29
-30 -15 0 -15 0 -6 10 -6 10 -15 0 -14 0 0 -10 0 -9 27 -25 27 -25 -17 -19
-17 -19 7 -6 6 -7 23 0 23 0 5 -8 5 -8 -7 -10 -7 -10 -18 -7 -18 -7 6 -11 7
-10 30 6 30 7 -4 -13 -4 -12 -33 -18 -32 -17 11 -7 12 -8 -6 -38 -6 -39 10 0
11 0 29 15 29 15 6 -10 6 -10 -40 -27 -40 -28 -1 -7 0 -8 28 -2 27 -1 16 1 17
1 5 -20 6 -21 -22 -45 -21 -44 13 -8 13 -9 -5 -18 -5 -19 -7 -22 -6 -23 21 0
22 0 -7 -31 -7 -30 17 -19 16 -18 -5 -38 -4 -39 -7 -16 -6 -16 20 -6 21 -5 1
-19 1 -18 8 25 8 25 1 90 1 90 19 90 20 90 14 67 15 68 30 41 31 41 27 14 26
14 17 0 17 0 10 -10 11 -11 13 16 12 15 106 0 105 0 46 50 47 51 48 14 49 15
24 0 23 0 0 16 0 16 36 -7 37 -6 8 13 8 13 30 -18 29 -17 20 0 21 0 5 9 6 8
41 7 42 7 18 -17 19 -17 18 16 19 17 10 0 11 0 11 14 11 13 43 1 42 0 35 -21
35 -20 38 -36 38 -36 23 29 23 29 7 -12 8 -12 13 11 14 11 17 -32 16 -33 13
25 14 24 7 -18 7 -18 -11 -22 -10 -22 -11 -30 -12 -30 -1 -58 -2 -58 -7 -5 -8
-5 5 -32 6 -32 32 -27 31 -27 9 -1 8 0 33 -27 32 -28 30 -16 31 -17 30 -93 31
-94 6 -35 7 -35 13 -25 13 -25 11 -27 11 -28 13 0 13 0 17 -36 17 -35 26 3 26
3 19 74 19 74 14 21 13 21 29 27 29 27 47 46 48 45 5 0 5 0 0 -17 0 -18 14 27
14 27 38 33 37 33 40 23 39 22 29 0 30 0 38 -19 38 -20 30 -34 31 -35 16 -49
16 -48 2 -45 2 -45 -3 -70 -2 -70 -9 20 -8 20 4 20 5 20 -15 88 -16 89 -16 34
-16 34 -32 19 -31 19 -26 7 -27 7 -41 -21 -40 -21 -37 -36 -36 -37 -44 -59
-44 -60 0 -17 1 -16 37 42 37 42 45 3 45 3 -33 18 -33 18 38 35 38 35 40 -6
40 -6 52 -25 52 -25 5 -17 5 -17 6 -32 7 -33 -9 0 -8 0 -17 40 -17 40 -10 0
-11 0 0 -18 0 -18 21 -43 20 -43 16 -72 16 -73 -18 -59 -19 -59 -33 -38 -33
-37 0 -10 0 -10 6 0 6 0 29 20 28 21 22 31 23 31 6 36 5 36 10 -5 10 -5 -2
-74 -3 -74 -13 -26 -14 -26 -23 -40 -23 -40 -27 -50 -27 -50 -44 -22 -44 -22
-45 -3 -44 -3 -17 34 -16 34 -6 -9 -5 -9 -1 -100 -1 -100 9 -14 9 -13 21 7 21
6 10 -25 10 -26 10 0 10 0 0 10 0 10 -22 22 -22 22 0 45 -1 45 49 18 49 19 10
-10 11 -11 -18 -112 -17 -113 -2 -167 -3 -167 -7 -7 -7 -7 0 13 0 12 -15 -12
-15 -12 0 -19 0 -19 -10 0 -9 0 5 48 5 47 -10 110 -11 110 -6 45 -5 45 -5 14
-5 15 -14 -15 -15 -14 15 -90 15 -90 0 -115 0 -115 -24 -50 -23 -50 -89 -80
-89 -80 -13 -12 -13 -13 -7 0 -7 -1 -45 -39 -45 -40 17 0 17 0 25 25 25 25 6
0 6 0 -33 -42 -33 -43 -5 -5 -5 -5 -40 -50 -39 -50 -70 -68 -70 -68 -28 6 -28
7 0 -11 0 -10 15 5 15 6 0 -10 0 -10 -15 -6 -15 -5 -13 5 -13 5 -29 -31 -29
-30 -9 0 -8 0 -55 -57 -54 -58 0 -11 0 -11 -45 -42 -46 -42 6 -8 5 -9 -40 -16
-40 -16 0 -7 0 -8 -27 -12 -28 -11 -32 -7 -31 -6 -19 10 -18 10 -32 16 -32 15
4 -13 5 -12 18 -12 18 -11 51 -26 50 -27 49 25 49 24 30 8 30 7 14 11 14 11
74 0 73 -1 0 8 0 7 -30 16 -29 15 -16 0 -15 0 0 9 0 10 9 23 9 23 79 78 80 78
29 15 29 15 5 8 5 7 35 24 35 24 19 18 20 18 10 1 11 1 12 -1 12 -2 26 41 26
41 -6 9 -6 10 15 0 16 0 0 8 0 7 33 40 32 40 38 39 37 38 0 6 0 5 18 16 18 16
28 37 28 38 22 0 22 0 21 -15 21 -14 6 -48 7 -48 25 -105 25 -105 15 -53 16
-52 10 6 10 7 -6 41 -7 41 -9 50 -9 50 -15 95 -15 95 -2 60 -1 60 7 40 7 40
24 42 24 42 15 -5 15 -6 0 -27 0 -26 15 -80 14 -80 12 -55 11 -55 8 -35 8 -35
10 -50 11 -50 25 -80 26 -80 11 -35 10 -35 9 -20 8 -20 26 -68 26 -67 0 -14 0
-14 -16 -53 -17 -54 -17 -52 -18 -53 22 0 23 0 36 110 37 111 0 10 0 10 -20
45 -20 44 -11 27 -11 28 -34 95 -33 94 4 4 5 5 124 -122 123 -121 12 0 11 0 0
16 0 16 -97 95 -98 94 -50 39 -51 39 -12 63 -13 63 -10 55 -11 55 -9 45 -8 45
-23 95 -23 95 -1 175 -2 175 15 60 15 60 12 55 12 55 6 15 6 15 16 55 17 56
35 69 36 70 17 30 16 30 0 130 0 130 8 90 9 90 -21 64 -21 64 -20 31 -19 32
-31 27 -30 27 0 15 0 15 9 0 9 0 -4 41 -4 41 -5 8 -5 9 10 6 11 7 -7 36 -7 37
-28 73 -29 73 0 30 0 30 -25 33 -25 33 0 19 0 20 -30 17 -30 18 11 17 11 18
-37 58 -36 57 -15 6 -15 5 15 22 14 22 -19 25 -18 24 -31 -17 -32 -18 -10 0
-10 0 17 26 16 25 -11 13 -10 14 10 27 11 28 -5 4 -4 5 -23 -13 -23 -12 -4 13
-5 14 -31 28 -31 28 -20 6 -20 6 -18 16 -19 17 -9 -18 -10 -17 -8 0 -8 0 -6
28 -6 27 -10 15 -10 15 -20 -12 -20 -13 -8 13 -7 12 -6 -23 -5 -23 -10 0 -10
0 -5 22 -6 23 -11 3 -10 4 -8 -23 -7 -23 -9 31 -9 31 -20 18 -20 18 -15 -13
-15 -12 -14 11 -14 12 -24 -6 -25 -6 -16 24 -16 25 -34 4 -35 4 -21 -14z m224
-191 l170 -62 35 -16 35 -16 57 -46 58 -46 0 -6 0 -6 50 -68 50 -68 70 -141
69 -141 16 -50 16 -50 6 -47 6 -47 -19 -30 -19 -29 -94 -64 -94 -63 -15 -10
-15 -10 -80 -62 -79 -63 -17 0 -18 0 -15 18 -15 17 -37 70 -36 71 -74 81 -73
80 -6 25 -6 24 -10 88 -10 87 -21 35 -21 34 -39 32 -38 33 -136 44 -135 43
-38 -5 -38 -5 -115 -11 -115 -12 -17 -9 -17 -10 -5 8 -5 9 -68 -9 -68 -8 -65
-21 -65 -21 -60 -34 -61 -33 -44 -17 -45 -16 -65 -14 -65 -14 -20 0 -20 0 -29
-15 -28 -15 -9 0 -9 0 -41 -26 -40 -25 -17 3 -16 3 -8 30 -8 30 6 37 6 37 14
12 14 11 0 19 0 19 9 0 9 0 58 61 59 62 48 48 48 49 8 0 7 0 40 33 39 32 35
26 35 26 65 40 65 39 95 36 95 36 40 13 40 12 185 7 185 8 155 -3 156 -2 169
-62z M684 2994 l-19 -15 25 12 25 12 4 3 4 4 -9 0 -10 0 -20 -16z M616 2944
l-7 -26 6 -6 5 -6 15 20 14 19 1 13 0 12 -14 0 -14 0 -6 -26z M732 2850 l-52
-8 -53 -25 -52 -25 -43 -32 -44 -31 6 -6 5 -5 93 45 93 46 60 11 60 11 23 5
23 5 -6 9 -6 10 -27 -1 -27 -1 -53 -8z M965 2843 l-20 -4 -53 -20 -53 -19 -30
0 -30 0 -30 -15 -29 -16 -52 -9 -53 -10 -14 -15 -15 -15 8 -7 7 -7 19 12 20
12 25 0 24 0 33 14 33 14 105 21 105 21 80 5 80 6 28 6 29 5 -9 9 -9 9 -90 4
-89 4 -20 -5z M875 2755 l-61 -13 -68 -21 -68 -21 -28 0 -28 0 -16 -6 -16 -6
6 -9 5 -9 34 0 34 0 88 25 88 26 73 12 73 12 2 10 2 10 -30 2 -30 2 -60 -14z
M857 2644 l-26 -32 -7 -42 -7 -41 23 -24 23 -24 8 5 9 5 0 25 0 24 23 9 23 9
30 -6 29 -5 20 -13 20 -13 85 -20 85 -20 133 -16 134 -16 41 -13 42 -12 28 7
29 8 14 -6 14 -5 -36 -29 -37 -29 -8 0 -9 0 -39 -35 -39 -36 -79 22 -78 21
-60 9 -60 9 -33 -11 -32 -11 -10 -18 -10 -19 0 -7 0 -6 34 26 35 26 45 0 45 0
6 -10 6 -10 -42 -6 -41 -7 -56 -49 -56 -48 -10 3 -10 3 -15 48 -15 47 10 50
11 50 -8 -3 -7 -3 -61 -58 -61 -58 0 -15 0 -15 16 -52 17 -52 15 -15 14 -15
-6 63 -6 62 5 0 5 0 66 -62 66 -63 36 -19 36 -19 51 1 50 0 25 14 26 13 41 33
42 33 31 10 31 11 14 -18 13 -19 84 0 83 0 20 8 19 8 -14 9 -15 10 -87 0 -88
0 0 6 0 5 11 20 10 20 -28 -6 -28 -7 -30 -10 -30 -11 -55 -37 -55 -37 -38 -7
-38 -7 -52 17 -52 17 -18 9 -19 10 47 24 47 23 56 21 55 21 121 -2 121 -3 50
19 50 18 48 6 48 6 -1 10 0 10 -43 -1 -42 -1 -58 -17 -59 -17 -10 3 -10 4 63
34 62 35 20 27 20 27 -13 16 -13 16 18 13 18 13 -69 41 -69 41 -82 20 -82 19
-12 7 -11 8 -57 2 -56 3 -28 11 -28 11 -38 0 -39 0 -34 14 -34 15 -76 -1 -75
-1 -26 -33z M707 2600 l-17 -39 8 -22 8 -21 14 56 13 56 -4 5 -5 4 -17 -39z
M760 2621 l0 -10 -13 -13 -13 -13 5 -80 6 -80 7 11 7 10 7 92 7 92 -7 0 -6 0
0 -9z M598 2613 l13 -5 6 6 6 6 -19 -1 -19 -1 13 -5z M490 2524 l-54 -56 -28
-14 -28 -15 0 -19 0 -19 -14 -8 -15 -8 -39 -61 -39 -60 -7 -35 -6 -35 20 -57
20 -57 0 -25 0 -25 25 -22 25 -22 0 -79 0 -80 -12 -114 -12 -114 13 -37 13
-37 85 -170 86 -170 45 -75 45 -75 41 -55 40 -55 63 -67 63 -67 25 -56 25 -56
0 -11 0 -12 27 -85 26 -86 31 -30 31 -30 18 -10 18 -10 -46 -88 -46 -89 -37
-56 -38 -57 -14 -28 -14 -27 -40 -11 -41 -11 -52 -15 -53 -15 0 -4 0 -4 100 2
100 2 0 9 0 8 30 44 30 44 0 10 0 11 10 0 10 0 0 11 0 10 29 42 29 42 22 50
22 50 12 29 12 28 32 -52 32 -51 0 -5 0 -5 62 -92 61 -92 40 -47 39 -48 14 0
14 0 0 6 0 6 -38 47 -39 46 -40 60 -40 60 -42 69 -41 69 2 3 3 2 68 -40 68
-41 6 6 5 6 -6 16 -6 16 -40 18 -40 18 98 6 98 6 50 17 49 16 60 43 60 43 53
49 52 49 0 12 0 11 14 -5 14 -5 31 38 31 38 0 9 0 10 -40 -39 -40 -39 -6 7 -6
6 30 63 30 63 30 100 30 100 30 115 30 115 12 65 12 65 9 48 9 48 0 97 0 97
-11 40 -11 40 -37 51 -36 52 -54 56 -53 57 -10 -3 -10 -4 34 -44 34 -45 41
-60 40 -60 11 -35 11 -35 10 -52 10 -52 -10 -88 -10 -88 -11 -65 -11 -65 -8
-10 -7 -10 -16 -85 -15 -85 -25 -80 -26 -80 0 -7 0 -8 -20 -45 -20 -45 -20
-45 -20 -45 -36 -38 -35 -37 -10 -18 -10 -17 6 0 6 0 22 11 22 10 -55 -50 -55
-51 -60 -29 -60 -28 -83 -7 -84 -7 -6 -1 -7 -1 -72 8 -73 8 0 7 0 8 88 7 87 6
20 9 20 8 39 6 39 5 11 11 11 11 -65 -6 -65 -7 -42 -14 -43 -14 -32 6 -33 6
-35 15 -35 15 -33 32 -34 31 -13 26 -14 26 6 24 6 23 13 25 12 24 -15 36 -16
36 -31 65 -31 65 -39 65 -39 65 -37 40 -37 41 -49 74 -49 75 -12 25 -11 25
-11 34 -11 34 0 37 0 36 19 40 19 39 -6 9 -5 10 -27 -32 -27 -32 -10 -35 -11
-34 10 -48 9 -48 22 -40 21 -40 92 -112 92 -112 41 -74 41 -74 25 -67 25 -66
-1 -43 -1 -42 -7 25 -8 25 -23 45 -22 45 -71 120 -72 120 3 14 4 14 -17 -7
-16 -6 6 10 7 11 -73 95 -73 96 -18 12 -18 11 -56 115 -56 115 -10 22 -10 21
4 104 3 103 10 15 10 15 -3 17 -3 17 11 21 12 22 21 24 21 24 14 0 14 0 -36
-40 -36 -40 0 -17 0 -17 44 47 45 46 38 6 38 6 47 15 47 14 7 0 8 0 -42 -31
-42 -31 0 -9 0 -9 41 21 41 21 35 34 35 35 5 -4 4 -5 -15 -46 -16 -47 0 -15 0
-16 -22 -39 -21 -38 -34 -16 -34 -16 -13 10 -13 11 -10 -12 -9 -13 -12 -28
-12 -27 37 15 37 16 6 8 5 8 23 7 22 7 0 -24 0 -25 -20 -5 -20 -5 0 -43 0 -42
46 -45 46 -44 27 7 26 7 25 0 25 -1 36 -6 35 -7 45 25 45 26 65 24 64 25 26 6
26 6 46 49 47 50 -12 28 -12 28 -15 24 -15 23 -38 24 -38 24 -9 0 -10 0 -21
-22 -20 -22 9 -9 9 -9 17 10 18 9 28 -10 29 -11 15 -39 16 -39 -13 -17 -13
-16 -15 -12 -15 -12 -50 -1 -51 0 -59 -15 -59 -16 -18 -16 -18 -16 0 -18 0
-17 13 -5 12 -5 -56 -1 -56 -1 -29 15 -29 14 -22 21 -22 20 -7 36 -7 36 31 77
30 76 12 70 12 70 9 48 9 48 0 43 0 43 -23 34 -22 33 -30 6 -30 7 -40 20 -40
20 -42 1 -42 2 -6 -10 -6 -10 15 0 15 0 58 -27 58 -27 43 -28 42 -29 0 -19 0
-20 -25 -6 -25 -6 -44 13 -44 13 5 13 5 13 -43 0 -43 0 -40 -20 -41 -20 -28
-24 -29 -25 6 -9 5 -9 -28 -34 -28 -34 -15 13 -16 12 -6 41 -6 40 37 71 37 71
31 31 31 31 45 41 44 41 13 7 13 8 16 -14 17 -13 -7 17 -6 17 28 30 28 30 -14
46 -15 45 -29 0 -28 0 -6 10 -6 10 -7 0 -8 0 -54 -56z m288 -446 l3 -16 -16
-16 -16 -16 -27 -6 -27 -5 -70 -21 -70 -21 -45 -5 -45 -4 -17 19 -18 19 15 21
14 20 38 19 38 19 75 5 75 5 45 -1 45 0 3 -16z m-368 -107 l0 -10 -11 -6 -10
-7 -6 5 -5 6 7 10 6 11 10 0 9 0 0 -9z m-1 -60 l-24 -19 -3 2 -2 3 6 17 6 16
20 0 20 0 -23 -19z m306 -319 l-6 -16 -14 15 -13 14 -2 20 -2 20 1 15 1 15 21
-34 20 -33 -6 -16z m-8 -606 l22 -31 0 -8 1 -8 -13 13 -13 13 -24 35 -24 35
-6 5 -6 5 -21 30 -21 30 -21 38 -21 38 0 6 0 6 63 -87 62 -88 22 -32z M677
2487 l-7 -19 0 -24 0 -25 20 -39 20 -39 10 -6 10 -6 0 13 0 13 -17 30 -16 30
-6 45 -6 45 -8 -18z M1706 2434 l-69 -65 7 -7 7 -7 37 21 37 21 33 42 32 43 0
9 0 9 -7 0 -8 -1 -69 -65z M2510 2420 l0 -41 15 -29 15 -30 41 -20 41 -21 16
3 16 3 -17 17 -17 16 -9 4 -9 3 -4 20 -3 20 23 3 22 3 0 10 0 10 -43 18 -42
18 -14 17 -13 16 -9 0 -9 0 0 -40z M2700 2400 l0 -10 11 0 10 0 -6 10 -6 10
-5 0 -4 0 0 -10z M2757 2364 l-7 -7 0 -47 0 -46 -12 -12 -12 -12 6 -5 5 -5 16
6 16 6 5 36 6 37 -8 28 -7 28 -8 -7z M2457 2353 l-7 -6 0 -37 0 -37 41 -61 41
-62 -7 -32 -7 -33 -5 -52 -5 -53 14 0 14 0 41 43 40 42 6 17 6 17 55 26 54 26
17 25 17 26 -6 6 -6 6 -28 -26 -27 -25 -56 -22 -57 -22 -6 -30 -5 -29 -17 0
-16 0 21 34 21 33 -21 48 -21 47 -29 31 -29 30 -10 39 -11 38 -3 0 -3 0 -6 -7z
M1704 2303 l-32 -4 -18 -20 -18 -20 100 6 99 6 22 5 22 4 -5 15 -6 15 -67 -2
-66 -1 -31 -4z M1010 2092 l0 -9 18 -14 17 -15 41 -22 42 -22 11 0 11 0 0 9 0
8 -55 37 -55 36 -15 0 -15 0 0 -8z M1630 2093 l0 -8 49 -29 49 -29 55 -56 54
-56 16 -25 17 -24 0 14 -1 15 -12 22 -12 22 -59 61 -60 61 -37 20 -38 19 -11
0 -10 0 0 -7z M1316 2031 l-7 -10 -49 6 -50 6 0 -12 0 -11 11 0 12 0 68 -35
69 -35 15 0 15 0 -36 48 -36 47 -3 3 -3 3 -6 -10z M2459 2016 l-6 -7 8 -47 9
-47 6 -25 6 -25 8 15 8 15 6 23 7 22 -15 0 -16 0 -4 23 -5 22 -3 18 -3 19 -6
-6z M1263 1916 l5 -14 -25 -11 -24 -11 -11 6 -11 7 5 -14 4 -13 38 -3 38 -2
44 -21 44 -22 127 -126 128 -127 16 -44 15 -45 12 -4 12 -4 0 49 0 48 -19 31
-18 30 -81 84 -81 83 6 10 6 10 -11 -7 -11 -7 -35 23 -36 23 0 8 0 7 9 0 10 0
6 -10 6 -10 10 0 10 0 -16 16 -16 16 -16 -6 -16 -6 -11 9 -11 9 -49 26 -49 26
-5 0 -4 0 5 -14z M1622 1778 l13 -13 35 -26 35 -25 14 -9 14 -8 -10 16 -9 17
-47 30 -48 30 -5 0 -5 0 13 -12z M416 1703 l-7 -16 11 -11 10 -10 0 27 0 27
-4 0 -4 0 -6 -17z M556 1619 l-26 -31 -6 -24 -6 -25 6 -6 6 -6 15 13 15 12 0
12 0 11 20 25 20 25 0 13 0 12 -9 0 -9 0 -26 -31z M2324 1613 l-6 -18 -11 -29
-11 -30 -63 -75 -64 -76 -29 -50 -29 -51 -6 -44 -7 -45 30 53 30 52 75 103 74
102 10 20 10 20 7 43 6 42 -5 0 -6 0 -5 -17z M1694 1563 l7 -48 2 -27 2 -26 7
4 7 5 7 -25 6 -25 -5 -93 -5 -93 -11 -78 -10 -78 -27 -57 -26 -57 -11 -25 -11
-25 -58 -79 -58 -79 0 -9 0 -8 8 0 9 0 34 38 35 37 21 30 21 30 49 95 49 95
12 47 12 47 0 160 0 160 -9 23 -9 23 -17 43 -18 42 -10 0 -9 0 6 -47z M988
1526 l-38 -21 0 -7 0 -6 18 4 17 5 25 19 25 19 -5 3 -5 4 -37 -20z M1947 1469
l-15 -74 -12 -90 -12 -90 -20 -85 -20 -85 -25 -90 -26 -90 -28 -57 -29 -57 0
-6 0 -6 18 10 18 10 33 68 33 68 9 17 9 18 0 24 0 25 10 6 10 6 0 29 0 29 10
6 10 6 0 34 0 34 9 5 8 5 7 63 6 63 5 40 5 40 11 81 12 81 -11 18 -10 19 -15
-75z M2612 1490 l-12 -20 0 -19 0 -19 14 -11 13 -11 2 50 1 50 -3 0 -2 0 -13
-20z M1070 1463 l-95 -36 -55 -1 -55 -1 -48 -28 -47 -28 -16 -24 -16 -24 5
-18 4 -18 10 26 11 25 38 29 37 29 81 7 81 7 31 16 31 16 49 11 49 12 100 3
100 3 -61 -14 -62 -13 -69 -25 -68 -25 -70 -16 -70 -17 -36 -9 -36 -10 -41 0
-40 0 -20 -17 -21 -18 -20 -38 -21 -38 0 -14 0 -15 28 0 27 0 21 -6 21 -5 29
-52 30 -52 33 -22 34 -23 35 0 34 0 27 25 26 26 42 35 42 35 28 8 28 7 38 -7
38 -7 14 15 14 14 38 15 37 16 64 -7 64 -7 -11 -11 -11 -11 1 -20 0 -21 12 19
12 19 53 68 52 68 7 33 6 32 22 -57 21 -58 7 7 7 7 0 32 0 33 -15 35 -14 35
-38 31 -38 31 -7 0 -8 0 0 -13 0 -14 25 -23 25 -23 0 -8 0 -8 -35 21 -36 20
-6 -5 -5 -6 6 -26 7 -27 13 11 12 11 11 -11 11 -11 -5 -14 -5 -14 -22 0 -21 0
-25 -13 -26 -14 -23 -6 -24 -6 -19 10 -20 11 -19 -18 -19 -17 -24 12 -23 13
-26 -26 -27 -26 -23 5 -23 6 -13 -15 -13 -16 -23 0 -22 0 -23 -20 -23 -20 -33
0 -33 0 -5 -9 -6 -9 -37 -5 -38 -5 -27 -7 -26 -7 -17 26 -17 26 -8 32 -9 33
-7 23 -7 23 52 -3 51 -3 -5 -16 -6 -17 15 -5 14 -6 5 20 5 19 24 9 25 9 44 7
45 7 14 -29 14 -28 4 26 3 27 20 18 21 18 18 -24 19 -25 9 26 10 25 14 11 13
11 30 7 30 7 -14 -10 -14 -10 6 -17 7 -16 36 35 37 36 31 -2 31 -1 -32 -4 -33
-4 0 -12 0 -12 10 -15 9 -15 34 33 33 32 27 0 27 0 0 10 0 10 -42 22 -43 23
-140 2 -140 3 -95 -37z m167 -79 l-6 -6 -13 5 -13 5 19 1 19 1 -6 -6z M2445
1437 l-40 -62 -48 -51 -48 -52 -30 -6 -31 -6 -31 -36 -32 -36 -40 -42 -40 -41
-64 -78 -63 -78 4 -5 5 -4 59 51 59 52 33 34 32 34 0 5 0 5 49 50 48 49 15 0
15 0 56 48 57 47 6 28 7 27 7 0 8 0 13 33 12 32 19 27 18 26 0 6 0 6 -7 0 -8
0 -40 -63z M1483 1412 l-13 -8 15 -20 15 -19 10 15 10 15 0 13 0 12 -12 0 -13
0 -12 -8z M1030 1303 l0 -18 10 -15 9 -14 7 17 6 17 -6 15 -5 15 -11 0 -10 0
0 -17z M2621 1284 l1 -19 5 13 5 13 -6 6 -6 6 1 -19z M2621 1244 l1 -19 5 13
5 13 -6 6 -6 6 1 -19z M1962 1195 l0 -30 5 18 5 17 -5 13 -5 12 0 -30z M1348
1163 l13 -5 6 6 6 6 -19 -1 -19 -1 13 -5z M1228 1143 l13 -5 6 6 6 6 -19 -1
-19 -1 13 -5z M1153 1123 l17 -4 18 4 17 5 -35 0 -35 0 18 -5z M1393 1111
l-20 -19 -26 5 -27 5 0 -16 0 -16 15 0 15 0 45 21 45 21 6 9 5 9 -19 0 -18 0
-21 -19z M1942 1110 l0 -25 5 13 5 12 -5 13 -5 12 0 -25z M1495 1104 l-20 -15
-130 -64 -130 -64 -92 -6 -92 -7 -41 7 -42 7 -44 46 -44 46 0 -8 0 -7 30 -45
31 -44 29 -15 29 -15 70 0 69 0 74 14 73 14 58 27 57 26 56 34 57 34 18 17 19
17 0 9 0 8 -7 0 -8 -1 -20 -15z M1256 1074 l-6 -16 0 -4 0 -4 18 0 17 0 13 8
13 9 -25 11 -24 11 -6 -15z M1190 1055 l-12 -15 32 0 33 0 -4 3 -4 3 -16 12
-16 12 -13 -15z M1080 1039 l0 -10 10 6 10 6 0 5 0 4 -10 0 -10 0 0 -11z
M1123 1043 l17 -5 13 5 12 5 -30 0 -30 0 18 -5z M1280 905 l-105 -24 -72 0
-72 -1 -6 -9 -6 -10 18 -9 18 -9 82 -13 81 -12 59 21 58 22 48 22 47 22 -3 10
-4 10 -19 2 -19 1 -105 -23z M2160 762 l0 -9 -50 -27 -50 -27 0 -10 0 -10 31
18 31 18 19 10 19 10 0 7 0 8 15 0 15 0 0 10 0 10 -15 0 -15 0 0 -8z M2340
714 l0 -9 -46 -53 -46 -52 9 0 8 0 22 18 21 17 22 39 21 38 -6 6 -5 5 0 -9z
M1990 655 l-34 -25 -10 0 -11 0 -25 -20 -25 -19 11 -11 10 -10 22 20 21 20 9
0 10 0 13 16 13 16 23 9 23 9 0 10 0 10 -8 0 -8 0 -34 -25z M1399 627 l-26
-22 -29 -22 -28 -23 10 0 10 0 20 15 19 14 16 1 17 0 12 15 12 14 -4 15 -3 15
-26 -22z M1218 603 l13 -5 6 6 6 6 -19 -1 -19 -1 13 -5z M1168 583 l12 -5 13
5 12 5 -25 0 -25 0 13 -5z M1576 481 l-49 -50 -29 -12 -28 -11 0 -9 0 -9 22 0
21 0 34 26 34 26 35 34 34 35 0 9 0 10 -13 0 -13 0 -48 -49z"/>
</g>
</svg>
