<?xml version="1.0" standalone="no"?>
<!DOCTYPE svg PUBLIC "-//W3C//DTD SVG 20010904//EN"
 "http://www.w3.org/TR/2001/REC-SVG-20010904/DTD/svg10.dtd">
<svg version="1.0" xmlns="http://www.w3.org/2000/svg"
 width="161.000000pt" height="200.000000pt" viewBox="0 0 161.000000 200.000000"
 preserveAspectRatio="xMidYMid meet">
<metadata>
Created by potrace 1.16, written by Peter Selinger 2001-2019
</metadata>
<g transform="translate(0.000000,200.000000) scale(0.100000,-0.100000)"
fill="#000000" stroke="none">
<path d="M558 1953 c-17 -7 -34 -10 -39 -7 -5 3 -9 2 -9 -3 0 -4 -27 -17 -60
-27 -33 -11 -60 -23 -60 -29 0 -5 -5 -7 -12 -5 -7 3 -23 -8 -35 -23 -13 -15
-39 -33 -59 -39 -19 -7 -34 -17 -33 -23 3 -29 -2 -39 -19 -35 -12 4 -27 -5
-41 -23 -13 -16 -28 -26 -34 -22 -6 3 -7 1 -3 -5 4 -7 2 -12 -5 -12 -10 0 -10
-3 -2 -11 9 -9 3 -18 -23 -36 -20 -13 -40 -21 -45 -18 -5 4 -9 2 -9 -4 0 -5 5
-13 10 -16 6 -4 7 -11 4 -17 -4 -6 0 -14 7 -19 12 -8 12 -11 -1 -19 -13 -8
-12 -10 5 -10 15 0 16 -3 7 -12 -18 -18 -15 -58 4 -58 12 0 14 -3 6 -13 -9
-10 -6 -18 9 -30 14 -13 17 -22 11 -34 -6 -10 -4 -35 4 -67 8 -28 14 -63 14
-78 0 -57 18 -34 23 30 6 79 33 180 56 211 17 22 40 28 123 30 35 1 54 8 79
29 38 32 140 63 163 50 9 -5 21 -6 27 -2 7 4 28 8 48 10 20 2 52 7 71 10 27 4
43 0 72 -19 20 -14 39 -22 43 -19 12 12 30 8 42 -9 8 -11 10 -32 4 -66 -10
-66 -2 -85 53 -119 43 -27 48 -35 71 -110 23 -74 60 -134 83 -134 5 0 14 18
21 40 11 36 78 115 98 115 5 0 22 15 39 32 57 58 115 54 154 -9 11 -18 20 -28
20 -21 0 6 -11 24 -24 40 -20 23 -24 38 -21 74 1 24 -4 64 -12 89 -9 25 -16
50 -17 55 -3 22 -30 80 -40 87 -6 4 -11 13 -11 20 -1 20 -27 68 -37 68 -5 0
-7 4 -4 9 11 17 -6 42 -24 36 -11 -3 -18 -1 -17 7 1 33 -4 49 -13 43 -5 -3
-10 -2 -10 4 0 12 -69 55 -77 47 -3 -3 -11 2 -18 11 -15 20 -45 26 -45 10 0
-7 -4 -6 -10 3 -5 8 -12 11 -16 7 -4 -4 -13 1 -19 10 -7 9 -25 18 -41 20 -16
3 -33 8 -39 13 -8 7 -187 7 -220 0 -5 -1 -12 -1 -15 0 -20 8 -128 3 -152 -7z"/>
<path d="M295 1395 c-22 -13 -35 -25 -29 -25 5 0 15 5 21 11 6 6 28 17 49 24
23 8 31 14 19 15 -11 0 -38 -11 -60 -25z"/>
<path d="M468 1415 c-3 -3 -25 -10 -49 -15 l-44 -9 45 5 c25 3 68 9 95 14 l50
7 -46 2 c-25 0 -48 -1 -51 -4z"/>
<path d="M340 1383 c-37 -7 -46 -20 -10 -15 17 2 33 8 36 13 3 5 4 8 2 8 -2
-1 -14 -4 -28 -6z"/>
<path d="M417 1373 c-32 -9 -56 -17 -55 -19 7 -6 128 21 128 28 0 10 -1 10
-73 -9z"/>
<path d="M318 1343 c6 -2 18 -2 25 0 6 3 1 5 -13 5 -14 0 -19 -2 -12 -5z"/>
<path d="M1285 1313 c-21 -21 -42 -47 -47 -58 -10 -19 -10 -19 8 -4 10 9 26
14 34 11 13 -4 13 -3 2 11 -11 13 -10 18 11 32 21 13 30 14 63 3 22 -8 44 -24
52 -38 13 -24 13 -24 8 10 -7 40 -37 70 -72 70 -14 0 -38 -15 -59 -37z"/>
<path d="M432 1328 c-16 -21 -22 -52 -13 -67 8 -12 12 -12 26 3 11 10 24 14
34 10 53 -21 229 -54 318 -58 27 -1 32 2 29 18 -1 10 -11 25 -22 33 -21 16
-110 43 -158 49 -17 2 -51 8 -76 14 -64 13 -126 12 -138 -2z"/>
<path d="M377 1296 c-4 -10 -7 -30 -6 -44 1 -25 1 -25 10 6 11 37 7 67 -4 38z"/>
<path d="M351 1284 c0 -11 3 -14 6 -6 3 7 2 16 -1 19 -3 4 -6 -2 -5 -13z"/>
<path d="M244 1265 c-16 -15 -33 -30 -39 -33 -10 -7 -27 -33 -56 -90 -16 -30
-16 -38 -4 -73 8 -21 11 -39 8 -39 -3 0 2 -9 12 -20 16 -17 17 -32 12 -119
l-6 -100 55 -111 c60 -123 95 -177 159 -251 31 -34 49 -66 61 -110 10 -34 28
-75 42 -91 l24 -29 -24 -47 c-49 -95 -78 -132 -101 -133 -12 0 -31 -4 -42 -9
-15 -7 -8 -9 25 -7 l45 2 48 80 c26 44 50 89 53 99 5 15 16 4 54 -55 27 -41
60 -87 75 -104 14 -17 4 4 -23 45 -27 41 -54 85 -61 98 l-12 22 33 -20 c18
-11 37 -20 41 -20 14 0 -4 21 -27 30 -16 7 -9 9 31 9 28 1 63 5 77 10 17 7 26
7 29 -2 4 -14 82 36 91 59 9 23 -8 16 -39 -16 -16 -16 -32 -30 -36 -30 -5 0
14 21 42 47 27 25 47 48 45 51 -3 2 4 23 16 45 42 83 98 316 98 410 0 47 -22
111 -42 123 -5 4 -2 -9 8 -27 35 -65 21 -206 -39 -399 -24 -78 -42 -118 -70
-148 -11 -12 -17 -22 -12 -22 18 0 -32 -44 -70 -61 -55 -26 -191 -26 -221 -1
-12 10 -31 48 -43 84 -12 37 -44 103 -70 147 -27 44 -47 82 -45 84 2 2 -18 28
-45 58 -26 30 -62 82 -80 116 -26 52 -31 74 -31 131 0 56 4 75 22 98 21 27 21
28 1 11 -20 -17 -20 -17 -20 8 0 14 4 25 9 25 5 0 6 -5 3 -11 -4 -6 -1 -10 6
-8 37 5 42 -1 23 -23 -10 -13 -12 -18 -4 -11 8 6 42 20 75 31 58 20 59 20 36
1 -13 -10 -20 -19 -15 -19 4 0 21 12 37 28 l29 27 -6 -40 c-4 -30 -3 -34 3
-15 5 14 9 38 10 55 1 22 -2 26 -11 17 -7 -7 -23 -12 -36 -12 -13 0 -21 -3
-19 -7 3 -5 -20 -8 -51 -8 -44 0 -57 3 -57 15 0 19 57 39 115 39 l44 1 -39 20
c-22 11 -45 20 -53 20 -26 0 -71 -31 -84 -57 -17 -35 -32 -35 -36 -1 -4 34 19
71 76 125 35 34 48 41 59 32 11 -9 12 -8 7 5 -3 9 -1 23 6 31 12 15 5 55 -10
55 -5 0 -15 3 -23 6 -8 3 -27 -7 -43 -21z m52 -679 c16 -25 33 -42 39 -39 5 4
7 3 3 -2 -4 -4 1 -20 11 -34 21 -31 43 -71 38 -71 -6 0 -94 125 -111 158 -24
46 -13 40 20 -12z m529 -286 c-3 -5 -11 -10 -16 -10 -6 0 -7 5 -4 10 3 6 11
10 16 10 6 0 7 -4 4 -10z"/>
<path d="M1443 1230 c0 -36 2 -50 4 -32 2 17 2 47 0 65 -2 17 -4 3 -4 -33z"/>
<path d="M1380 1266 c0 -2 7 -20 15 -40 21 -49 22 -96 2 -134 -17 -34 -5 -45
13 -12 14 26 25 160 12 142 -7 -11 -12 -6 -20 17 -9 26 -22 42 -22 27z"/>
<path d="M340 1229 c0 -13 5 -31 10 -39 7 -11 8 -5 4 20 -8 43 -14 51 -14 19z"/>
<path d="M851 1209 c-19 -15 -26 -17 -32 -7 -6 9 -18 4 -47 -19 -39 -32 -39
-32 -87 -17 -64 19 -109 18 -126 -3 -13 -15 -12 -15 9 -4 13 7 33 10 45 8 21
-4 21 -4 1 -6 -18 -1 -88 -61 -71 -61 3 0 29 9 58 20 33 13 71 20 107 19 32
-1 68 3 82 10 23 10 23 11 -10 6 l-35 -6 28 16 c16 9 38 18 50 21 12 2 30 13
41 24 26 26 18 25 -13 -1z"/>
<path d="M1262 1204 c2 -15 14 -33 28 -42 l25 -16 -25 28 c-25 28 -25 28 -2
22 29 -10 28 -2 -4 19 -25 16 -25 16 -22 -11z"/>
<path d="M828 1163 c6 -2 18 -2 25 0 6 3 1 5 -13 5 -14 0 -19 -2 -12 -5z"/>
<path d="M1381 1154 c0 -11 3 -14 6 -6 3 7 2 16 -1 19 -3 4 -6 -2 -5 -13z"/>
<path d="M270 1151 c0 -3 23 -15 52 -26 50 -19 59 -28 73 -70 5 -13 9 -16 12
-7 10 26 -8 61 -40 77 -37 20 -97 36 -97 26z"/>
<path d="M1230 1153 c0 -4 9 -23 21 -42 15 -26 19 -43 14 -72 -7 -42 3 -50 27
-21 27 31 34 49 11 30 -27 -25 -30 -23 -25 17 3 26 -2 42 -22 66 -14 17 -26
27 -26 22z"/>
<path d="M466 1123 c10 -40 14 -41 14 -5 0 18 -5 32 -10 32 -6 0 -8 -11 -4
-27z"/>
<path d="M853 1143 c9 -2 25 -2 35 0 9 3 1 5 -18 5 -19 0 -27 -2 -17 -5z"/>
<path d="M690 1096 c-52 -34 -74 -39 -117 -21 l-38 15 24 -20 c29 -25 81 -26
112 -1 13 10 38 25 54 34 17 9 23 16 15 17 -9 0 -31 -11 -50 -24z"/>
<path d="M768 1093 c12 -2 32 -2 45 0 12 2 2 4 -23 4 -25 0 -35 -2 -22 -4z"/>
<path d="M1426 1023 c-6 -14 -5 -15 5 -6 7 7 10 15 7 18 -3 3 -9 -2 -12 -12z"/>
<path d="M650 995 c30 -17 48 -19 32 -3 -6 6 -22 13 -34 15 -22 3 -22 2 2 -12z"/>
<path d="M1396 972 c-19 -38 -45 -59 -83 -66 -24 -6 -34 -3 -42 11 -8 14 -10
5 -11 -40 0 -36 4 -56 10 -52 6 3 10 15 10 25 0 18 27 40 48 40 6 0 8 -55 5
-142 -4 -131 -2 -155 25 -288 27 -130 88 -327 98 -317 2 2 -7 34 -21 71 -14
36 -25 72 -25 78 0 7 19 -6 43 -28 23 -22 51 -46 62 -53 11 -7 -10 15 -48 50
l-67 64 -26 130 c-34 168 -35 272 -5 389 12 49 28 105 36 123 17 40 11 44 -9
5z"/>
<path d="M650 941 c0 -5 9 -12 20 -16 28 -9 139 -122 155 -159 l13 -31 1 27
c1 33 -43 86 -123 147 -54 42 -66 48 -66 32z"/>
<path d="M590 916 c0 -2 7 -7 16 -10 8 -3 12 -2 9 4 -6 10 -25 14 -25 6z"/>
<path d="M621 875 c-2 -32 -21 -45 -68 -45 -53 0 -96 -18 -88 -38 4 -11 -2
-13 -32 -8 -21 4 -49 8 -61 10 -13 1 -28 9 -33 17 -5 8 -9 9 -9 3 0 -29 28
-46 79 -49 42 -2 67 4 125 30 78 36 100 55 93 82 -4 15 -5 15 -6 -2z"/>
<path d="M275 799 c-4 -6 -5 -12 -2 -15 2 -3 7 2 10 11 7 17 1 20 -8 4z"/>
<path d="M857 775 c16 -61 6 -217 -16 -267 -28 -65 -16 -61 14 5 21 43 25 67
24 142 0 58 -5 101 -15 120 l-14 30 7 -30z"/>
<path d="M292 768 c-36 -47 -20 -106 53 -193 58 -68 100 -143 114 -202 8 -33
9 -34 10 -10 1 35 -51 139 -95 191 -41 48 -84 131 -84 164 0 13 5 32 10 43 12
21 8 25 -8 7z"/>
<path d="M1278 679 c3 -72 1 -112 -7 -128 -7 -12 -10 -25 -7 -28 22 -23 36
150 17 227 -5 22 -6 -3 -3 -71z"/>
<path d="M565 741 c-11 -4 18 -6 65 -4 l85 3 -70 -20 c-103 -29 -196 -50 -229
-50 -28 0 -29 1 -10 15 10 8 33 15 49 15 17 1 44 7 60 16 25 12 26 13 5 8 -14
-3 -40 -8 -59 -9 -51 -5 -86 -35 -88 -79 -2 -29 1 -36 16 -36 10 0 32 -18 50
-40 36 -45 60 -50 98 -20 14 11 35 20 47 21 20 0 21 1 1 9 -18 7 -18 8 7 15
16 4 35 4 44 1 8 -3 22 1 30 9 9 8 33 15 54 15 33 0 38 -3 34 -17 -9 -26 43
37 58 70 l13 28 12 -28 12 -28 1 26 c0 28 -34 79 -52 79 -6 0 -3 -9 7 -20 17
-19 14 -19 -36 4 -41 20 -70 26 -119 25 -36 0 -74 -4 -85 -8z m210 -41 c4 -11
11 -18 16 -15 5 4 9 2 9 -4 0 -10 -88 -28 -119 -24 -8 1 -21 -5 -28 -13 -8 -8
-18 -12 -23 -9 -5 3 -24 -3 -43 -14 -18 -10 -54 -23 -80 -29 -51 -11 -60 -6
-71 41 -6 24 -4 27 19 27 14 0 25 -6 25 -12 0 -10 2 -10 8 0 13 20 74 34 84
19 6 -9 8 -9 8 1 0 7 16 20 35 28 45 18 56 18 48 -3 -4 -12 0 -11 11 5 23 30
92 32 101 2z"/>
<path d="M700 700 c0 -5 5 -10 10 -10 6 0 10 5 10 10 0 6 -4 10 -10 10 -5 0
-10 -4 -10 -10z"/>
<path d="M740 700 c0 -5 5 -10 10 -10 6 0 10 5 10 10 0 6 -4 10 -10 10 -5 0
-10 -4 -10 -10z"/>
<path d="M966 660 c-9 -72 -43 -205 -62 -244 -14 -28 -14 -29 1 -11 28 36 84
263 73 297 -3 7 -8 -12 -12 -42z"/>
<path d="M438 514 c11 -22 41 -50 45 -43 1 2 -11 18 -27 34 -20 20 -25 23 -18
9z"/>
<path d="M680 510 c-9 -6 -10 -10 -3 -10 6 0 15 5 18 10 8 12 4 12 -15 0z"/>
<path d="M578 473 c6 -2 18 -2 25 0 6 3 1 5 -13 5 -14 0 -19 -2 -12 -5z"/>
<path d="M1116 371 c-53 -59 -107 -116 -122 -125 -14 -10 -23 -20 -20 -23 14
-15 153 125 228 230 40 56 6 24 -86 -82z"/>
<path d="M513 463 c9 -2 23 -2 30 0 6 3 -1 5 -18 5 -16 0 -22 -2 -12 -5z"/>
<path d="M635 450 c-16 -4 -50 -8 -75 -9 -41 -2 -43 -3 -20 -12 30 -13 101 -5
138 15 22 13 23 15 7 14 -11 0 -33 -4 -50 -8z"/>
</g>
</svg>
